<svg xmlns="http://www.w3.org/2000/svg" xmlns:xlink="http://www.w3.org/1999/xlink" contentStyleType="text/css" data-diagram-type="SEQUENCE" height="896px" preserveAspectRatio="none" style="width:922px;height:896px;background:#FFFFFF;" version="1.1" viewBox="0 0 922 896" width="922px" zoomAndPan="magnify"><title>&#23567;&#35828;&#27169;&#24335;&#26102;&#24207;&#22270;</title><defs/><g><text fill="#000000" font-family="sans-serif" font-size="14" font-weight="bold" lengthAdjust="spacing" textLength="101.0625" x="409.7493" y="30.1074">&#23567;&#35828;&#27169;&#24335;&#26102;&#24207;&#22270;</text><g><title>..</title><rect fill="#FFFFFF" height="219.0371" style="stroke:#181818;stroke-width:1;" width="10" x="124" y="156.5332"/></g><g><title>..</title><rect fill="#FFFFFF" height="388.4922" style="stroke:#181818;stroke-width:1;" width="10" x="124" y="406.8613"/></g><g><title>..</title><rect fill="#FFFFFF" height="156.4551" style="stroke:#181818;stroke-width:1;" width="10" x="480.2534" y="187.8242"/></g><g><title>..</title><rect fill="#FFFFFF" height="281.6191" style="stroke:#181818;stroke-width:1;" width="10" x="480.2534" y="438.1523"/></g><g><title>MySQL</title><rect fill="#FFFFFF" height="31.291" style="stroke:#181818;stroke-width:1;" width="10" x="666.7134" y="281.6973"/></g><g><title>MySQL</title><rect fill="#FFFFFF" height="31.291" style="stroke:#181818;stroke-width:1;" width="10" x="666.7134" y="469.4434"/></g><g><title>MySQL</title><rect fill="#FFFFFF" height="31.291" style="stroke:#181818;stroke-width:1;" width="10" x="666.7134" y="532.0254"/></g><g><title>MySQL</title><rect fill="#FFFFFF" height="31.291" style="stroke:#181818;stroke-width:1;" width="10" x="666.7134" y="657.1895"/></g><g><title>....API</title><rect fill="#FFFFFF" height="31.291" style="stroke:#181818;stroke-width:1;" width="10" x="753.334" y="219.1152"/></g><g><title>DeepSeekAPI</title><rect fill="#FFFFFF" height="31.291" style="stroke:#181818;stroke-width:1;" width="10" x="860.5889" y="594.6074"/></g><g><title>..</title><rect fill="#000000" fill-opacity="0.00000" height="690.1113" width="8" x="18" y="123.2422"/><line style="stroke:#181818;stroke-width:0.5;stroke-dasharray:5,5;" x1="22" x2="22" y1="123.2422" y2="813.3535"/></g><g><title>..</title><rect fill="#000000" fill-opacity="0.00000" height="690.1113" width="8" x="125" y="123.2422"/><line style="stroke:#181818;stroke-width:0.5;stroke-dasharray:5,5;" x1="129" x2="129" y1="123.2422" y2="813.3535"/></g><g><title>..</title><rect fill="#000000" fill-opacity="0.00000" height="690.1113" width="8" x="481.2534" y="123.2422"/><line style="stroke:#181818;stroke-width:0.5;stroke-dasharray:5,5;" x1="485.2534" x2="485.2534" y1="123.2422" y2="813.3535"/></g><g><title>MySQL</title><rect fill="#000000" fill-opacity="0.00000" height="690.1113" width="8" x="667.7134" y="123.2422"/><line style="stroke:#181818;stroke-width:0.5;stroke-dasharray:5,5;" x1="671.3755" x2="671.3755" y1="123.2422" y2="813.3535"/></g><g><title>....API</title><rect fill="#000000" fill-opacity="0.00000" height="690.1113" width="8" x="754.334" y="123.2422"/><line style="stroke:#181818;stroke-width:0.5;stroke-dasharray:5,5;" x1="758.0513" x2="758.0513" y1="123.2422" y2="813.3535"/></g><g><title>DeepSeekAPI</title><rect fill="#000000" fill-opacity="0.00000" height="690.1113" width="8" x="861.5889" y="123.2422"/><line style="stroke:#181818;stroke-width:0.5;stroke-dasharray:5,5;" x1="864.6167" x2="864.6167" y1="123.2422" y2="813.3535"/></g><g class="participant participant-head" data-participant="User"><text fill="#000000" font-family="sans-serif" font-size="14" lengthAdjust="spacing" textLength="28" x="5" y="119.7285">&#29992;&#25143;</text><ellipse cx="22" cy="53.1211" fill="#E2E2F0" rx="8" ry="8" style="stroke:#181818;stroke-width:0.5;"/><path d="M22,61.1211 L22,88.1211 M9,69.1211 L35,69.1211 M22,88.1211 L9,103.1211 M22,88.1211 L35,103.1211" fill="none" style="stroke:#181818;stroke-width:0.5;"/></g><g class="participant participant-tail" data-participant="User"><text fill="#000000" font-family="sans-serif" font-size="14" lengthAdjust="spacing" textLength="28" x="5" y="827.4609">&#29992;&#25143;</text><ellipse cx="22" cy="839.4746" fill="#E2E2F0" rx="8" ry="8" style="stroke:#181818;stroke-width:0.5;"/><path d="M22,847.4746 L22,874.4746 M9,855.4746 L35,855.4746 M22,874.4746 L9,889.4746 M22,874.4746 L35,889.4746" fill="none" style="stroke:#181818;stroke-width:0.5;"/></g><g class="participant participant-head" data-participant="Frontend"><rect fill="#E2E2F0" height="32.6211" rx="2.5" ry="2.5" style="stroke:#181818;stroke-width:0.5;" width="42" x="108" y="89.6211"/><text fill="#000000" font-family="sans-serif" font-size="14" lengthAdjust="spacing" textLength="28" x="115" y="111.7285">&#21069;&#31471;</text></g><g class="participant participant-tail" data-participant="Frontend"><rect fill="#E2E2F0" height="32.6211" rx="2.5" ry="2.5" style="stroke:#181818;stroke-width:0.5;" width="42" x="108" y="812.3535"/><text fill="#000000" font-family="sans-serif" font-size="14" lengthAdjust="spacing" textLength="28" x="115" y="834.4609">&#21069;&#31471;</text></g><g class="participant participant-head" data-participant="Backend"><rect fill="#E2E2F0" height="32.6211" rx="2.5" ry="2.5" style="stroke:#181818;stroke-width:0.5;" width="42" x="464.2534" y="89.6211"/><text fill="#000000" font-family="sans-serif" font-size="14" lengthAdjust="spacing" textLength="28" x="471.2534" y="111.7285">&#21518;&#31471;</text></g><g class="participant participant-tail" data-participant="Backend"><rect fill="#E2E2F0" height="32.6211" rx="2.5" ry="2.5" style="stroke:#181818;stroke-width:0.5;" width="42" x="464.2534" y="812.3535"/><text fill="#000000" font-family="sans-serif" font-size="14" lengthAdjust="spacing" textLength="28" x="471.2534" y="834.4609">&#21518;&#31471;</text></g><g class="participant participant-head" data-participant="MySQL"><rect fill="#E2E2F0" height="32.6211" rx="2.5" ry="2.5" style="stroke:#181818;stroke-width:0.5;" width="60.6758" x="641.3755" y="89.6211"/><text fill="#000000" font-family="sans-serif" font-size="14" lengthAdjust="spacing" textLength="46.6758" x="648.3755" y="111.7285">MySQL</text></g><g class="participant participant-tail" data-participant="MySQL"><rect fill="#E2E2F0" height="32.6211" rx="2.5" ry="2.5" style="stroke:#181818;stroke-width:0.5;" width="60.6758" x="641.3755" y="812.3535"/><text fill="#000000" font-family="sans-serif" font-size="14" lengthAdjust="spacing" textLength="46.6758" x="648.3755" y="834.4609">MySQL</text></g><g class="participant participant-head" data-participant="Amap"><rect fill="#E2E2F0" height="32.6211" rx="2.5" ry="2.5" style="stroke:#181818;stroke-width:0.5;" width="92.5654" x="712.0513" y="89.6211"/><text fill="#000000" font-family="sans-serif" font-size="14" lengthAdjust="spacing" textLength="78.5654" x="719.0513" y="111.7285">&#39640;&#24503;&#22320;&#22270;API</text></g><g class="participant participant-tail" data-participant="Amap"><rect fill="#E2E2F0" height="32.6211" rx="2.5" ry="2.5" style="stroke:#181818;stroke-width:0.5;" width="92.5654" x="712.0513" y="812.3535"/><text fill="#000000" font-family="sans-serif" font-size="14" lengthAdjust="spacing" textLength="78.5654" x="719.0513" y="834.4609">&#39640;&#24503;&#22320;&#22270;API</text></g><g class="participant participant-head" data-participant="AI"><rect fill="#E2E2F0" height="32.6211" rx="2.5" ry="2.5" style="stroke:#181818;stroke-width:0.5;" width="101.9443" x="814.6167" y="89.6211"/><text fill="#000000" font-family="sans-serif" font-size="14" lengthAdjust="spacing" textLength="87.9443" x="821.6167" y="111.7285">DeepSeekAPI</text></g><g class="participant participant-tail" data-participant="AI"><rect fill="#E2E2F0" height="32.6211" rx="2.5" ry="2.5" style="stroke:#181818;stroke-width:0.5;" width="101.9443" x="814.6167" y="812.3535"/><text fill="#000000" font-family="sans-serif" font-size="14" lengthAdjust="spacing" textLength="87.9443" x="821.6167" y="834.4609">DeepSeekAPI</text></g><g><title>..</title><rect fill="#FFFFFF" height="219.0371" style="stroke:#181818;stroke-width:1;" width="10" x="124" y="156.5332"/></g><g><title>..</title><rect fill="#FFFFFF" height="388.4922" style="stroke:#181818;stroke-width:1;" width="10" x="124" y="406.8613"/></g><g><title>..</title><rect fill="#FFFFFF" height="156.4551" style="stroke:#181818;stroke-width:1;" width="10" x="480.2534" y="187.8242"/></g><g><title>..</title><rect fill="#FFFFFF" height="281.6191" style="stroke:#181818;stroke-width:1;" width="10" x="480.2534" y="438.1523"/></g><g><title>MySQL</title><rect fill="#FFFFFF" height="31.291" style="stroke:#181818;stroke-width:1;" width="10" x="666.7134" y="281.6973"/></g><g><title>MySQL</title><rect fill="#FFFFFF" height="31.291" style="stroke:#181818;stroke-width:1;" width="10" x="666.7134" y="469.4434"/></g><g><title>MySQL</title><rect fill="#FFFFFF" height="31.291" style="stroke:#181818;stroke-width:1;" width="10" x="666.7134" y="532.0254"/></g><g><title>MySQL</title><rect fill="#FFFFFF" height="31.291" style="stroke:#181818;stroke-width:1;" width="10" x="666.7134" y="657.1895"/></g><g><title>....API</title><rect fill="#FFFFFF" height="31.291" style="stroke:#181818;stroke-width:1;" width="10" x="753.334" y="219.1152"/></g><g><title>DeepSeekAPI</title><rect fill="#FFFFFF" height="31.291" style="stroke:#181818;stroke-width:1;" width="10" x="860.5889" y="594.6074"/></g><g class="message" data-participant-1="User" data-participant-2="Frontend"><polygon fill="#181818" points="112,152.5332,122,156.5332,112,160.5332,116,156.5332" style="stroke:#181818;stroke-width:1;"/><line style="stroke:#181818;stroke-width:1;" x1="22" x2="118" y1="156.5332" y2="156.5332"/><text fill="#000000" font-family="sans-serif" font-size="13" lengthAdjust="spacing" textLength="78" x="29" y="151.2705">&#24320;&#22987;&#23567;&#35828;&#23548;&#33322;</text></g><g class="message" data-participant-1="Frontend" data-participant-2="Backend"><polygon fill="#181818" points="468.2534,183.8242,478.2534,187.8242,468.2534,191.8242,472.2534,187.8242" style="stroke:#181818;stroke-width:1;"/><line style="stroke:#181818;stroke-width:1;" x1="134" x2="474.2534" y1="187.8242" y2="187.8242"/><text fill="#000000" font-family="sans-serif" font-size="13" lengthAdjust="spacing" textLength="327.2534" x="141" y="182.5615">POST /api/startNavigationNoBook (&#36215;&#28857;, &#32456;&#28857;, &#36890;&#34892;&#26041;&#24335;)</text></g><g class="message" data-participant-1="Backend" data-participant-2="Amap"><polygon fill="#181818" points="741.334,215.1152,751.334,219.1152,741.334,223.1152,745.334,219.1152" style="stroke:#181818;stroke-width:1;"/><line style="stroke:#181818;stroke-width:1;" x1="490.2534" x2="747.334" y1="219.1152" y2="219.1152"/><text fill="#000000" font-family="sans-serif" font-size="13" lengthAdjust="spacing" textLength="78" x="497.2534" y="213.8525">&#35831;&#27714;&#39550;&#39542;&#36335;&#32447;</text></g><g class="message" data-participant-1="Amap" data-participant-2="Backend"><polygon fill="#181818" points="501.2534,246.4063,491.2534,250.4063,501.2534,254.4063,497.2534,250.4063" style="stroke:#181818;stroke-width:1;"/><line style="stroke:#181818;stroke-width:1;stroke-dasharray:2,2;" x1="495.2534" x2="757.334" y1="250.4063" y2="250.4063"/><text fill="#000000" font-family="sans-serif" font-size="13" lengthAdjust="spacing" textLength="78" x="507.2534" y="245.1436">&#36820;&#22238;&#36335;&#32447;&#20449;&#24687;</text></g><g class="message" data-participant-1="Backend" data-participant-2="MySQL"><polygon fill="#181818" points="654.7134,277.6973,664.7134,281.6973,654.7134,285.6973,658.7134,281.6973" style="stroke:#181818;stroke-width:1;"/><line style="stroke:#181818;stroke-width:1;" x1="490.2534" x2="660.7134" y1="281.6973" y2="281.6973"/><text fill="#000000" font-family="sans-serif" font-size="13" lengthAdjust="spacing" textLength="157.46" x="497.2534" y="276.4346">&#25554;&#20837;&#36712;&#36857;&#25968;&#25454;&#21040;trajectory&#34920;</text></g><g class="message" data-participant-1="MySQL" data-participant-2="Backend"><polygon fill="#181818" points="501.2534,308.9883,491.2534,312.9883,501.2534,316.9883,497.2534,312.9883" style="stroke:#181818;stroke-width:1;"/><line style="stroke:#181818;stroke-width:1;stroke-dasharray:2,2;" x1="495.2534" x2="670.7134" y1="312.9883" y2="312.9883"/><text fill="#000000" font-family="sans-serif" font-size="13" lengthAdjust="spacing" textLength="65" x="507.2534" y="307.7256">&#36820;&#22238;&#36712;&#36857;ID</text></g><g class="message" data-participant-1="Backend" data-participant-2="Frontend"><polygon fill="#181818" points="145,340.2793,135,344.2793,145,348.2793,141,344.2793" style="stroke:#181818;stroke-width:1;"/><line style="stroke:#181818;stroke-width:1;stroke-dasharray:2,2;" x1="139" x2="484.2534" y1="344.2793" y2="344.2793"/><text fill="#000000" font-family="sans-serif" font-size="13" lengthAdjust="spacing" textLength="65" x="151" y="339.0166">&#36820;&#22238;&#36712;&#36857;ID</text></g><g class="message" data-participant-1="Frontend" data-participant-2="User"><polygon fill="#181818" points="33,371.5703,23,375.5703,33,379.5703,29,375.5703" style="stroke:#181818;stroke-width:1;"/><line style="stroke:#181818;stroke-width:1;stroke-dasharray:2,2;" x1="27" x2="128" y1="375.5703" y2="375.5703"/><text fill="#000000" font-family="sans-serif" font-size="13" lengthAdjust="spacing" textLength="78" x="39" y="370.3076">&#26174;&#31034;&#23548;&#33322;&#36335;&#32447;</text></g><g class="message" data-participant-1="User" data-participant-2="Frontend"><polygon fill="#181818" points="112,402.8613,122,406.8613,112,410.8613,116,406.8613" style="stroke:#181818;stroke-width:1;"/><line style="stroke:#181818;stroke-width:1;" x1="22" x2="118" y1="406.8613" y2="406.8613"/><text fill="#000000" font-family="sans-serif" font-size="13" lengthAdjust="spacing" textLength="78" x="29" y="401.5986">&#33719;&#21462;&#31456;&#33410;&#20869;&#23481;</text></g><g class="message" data-participant-1="Frontend" data-participant-2="Backend"><polygon fill="#181818" points="468.2534,434.1523,478.2534,438.1523,468.2534,442.1523,472.2534,438.1523" style="stroke:#181818;stroke-width:1;"/><line style="stroke:#181818;stroke-width:1;" x1="134" x2="474.2534" y1="438.1523" y2="438.1523"/><text fill="#000000" font-family="sans-serif" font-size="13" lengthAdjust="spacing" textLength="294.8105" x="141" y="432.8896">POST /api/get-chapter (bookId, trajectoryId, length)</text></g><g class="message" data-participant-1="Backend" data-participant-2="MySQL"><polygon fill="#181818" points="654.7134,465.4434,664.7134,469.4434,654.7134,473.4434,658.7134,469.4434" style="stroke:#181818;stroke-width:1;"/><line style="stroke:#181818;stroke-width:1;" x1="490.2534" x2="660.7134" y1="469.4434" y2="469.4434"/><text fill="#000000" font-family="sans-serif" font-size="13" lengthAdjust="spacing" textLength="67.1899" x="497.2534" y="464.1807">&#26597;&#35810;book&#34920;</text></g><g class="message" data-participant-1="MySQL" data-participant-2="Backend"><polygon fill="#181818" points="501.2534,496.7344,491.2534,500.7344,501.2534,504.7344,497.2534,500.7344" style="stroke:#181818;stroke-width:1;"/><line style="stroke:#181818;stroke-width:1;stroke-dasharray:2,2;" x1="495.2534" x2="670.7134" y1="500.7344" y2="500.7344"/><text fill="#000000" font-family="sans-serif" font-size="13" lengthAdjust="spacing" textLength="78" x="507.2534" y="495.4717">&#36820;&#22238;&#20070;&#31821;&#20449;&#24687;</text></g><g class="message" data-participant-1="Backend" data-participant-2="MySQL"><polygon fill="#181818" points="654.7134,528.0254,664.7134,532.0254,654.7134,536.0254,658.7134,532.0254" style="stroke:#181818;stroke-width:1;"/><line style="stroke:#181818;stroke-width:1;" x1="490.2534" x2="660.7134" y1="532.0254" y2="532.0254"/><text fill="#000000" font-family="sans-serif" font-size="13" lengthAdjust="spacing" textLength="65.019" x="497.2534" y="526.7627">&#26597;&#35810;area&#34920;</text></g><g class="message" data-participant-1="MySQL" data-participant-2="Backend"><polygon fill="#181818" points="501.2534,559.3164,491.2534,563.3164,501.2534,567.3164,497.2534,563.3164" style="stroke:#181818;stroke-width:1;"/><line style="stroke:#181818;stroke-width:1;stroke-dasharray:2,2;" x1="495.2534" x2="670.7134" y1="563.3164" y2="563.3164"/><text fill="#000000" font-family="sans-serif" font-size="13" lengthAdjust="spacing" textLength="78" x="507.2534" y="558.0537">&#36820;&#22238;&#21306;&#22495;&#20449;&#24687;</text></g><g class="message" data-participant-1="Backend" data-participant-2="AI"><polygon fill="#181818" points="848.5889,590.6074,858.5889,594.6074,848.5889,598.6074,852.5889,594.6074" style="stroke:#181818;stroke-width:1;"/><line style="stroke:#181818;stroke-width:1;" x1="490.2534" x2="854.5889" y1="594.6074" y2="594.6074"/><text fill="#000000" font-family="sans-serif" font-size="13" lengthAdjust="spacing" textLength="78" x="497.2534" y="589.3447">&#29983;&#25104;&#31456;&#33410;&#20869;&#23481;</text></g><g class="message" data-participant-1="AI" data-participant-2="Backend"><polygon fill="#181818" points="501.2534,621.8984,491.2534,625.8984,501.2534,629.8984,497.2534,625.8984" style="stroke:#181818;stroke-width:1;"/><line style="stroke:#181818;stroke-width:1;stroke-dasharray:2,2;" x1="495.2534" x2="864.5889" y1="625.8984" y2="625.8984"/><text fill="#000000" font-family="sans-serif" font-size="13" lengthAdjust="spacing" textLength="78" x="507.2534" y="620.6357">&#36820;&#22238;&#31456;&#33410;&#25991;&#26412;</text></g><g class="message" data-participant-1="Backend" data-participant-2="MySQL"><polygon fill="#181818" points="654.7134,653.1895,664.7134,657.1895,654.7134,661.1895,658.7134,657.1895" style="stroke:#181818;stroke-width:1;"/><line style="stroke:#181818;stroke-width:1;" x1="490.2534" x2="660.7134" y1="657.1895" y2="657.1895"/><text fill="#000000" font-family="sans-serif" font-size="13" lengthAdjust="spacing" textLength="147.3608" x="497.2534" y="651.9268">&#25554;&#20837;&#31456;&#33410;&#25968;&#25454;&#21040;chapter&#34920;</text></g><g class="message" data-participant-1="MySQL" data-participant-2="Backend"><polygon fill="#181818" points="501.2534,684.4805,491.2534,688.4805,501.2534,692.4805,497.2534,688.4805" style="stroke:#181818;stroke-width:1;"/><line style="stroke:#181818;stroke-width:1;stroke-dasharray:2,2;" x1="495.2534" x2="670.7134" y1="688.4805" y2="688.4805"/><text fill="#000000" font-family="sans-serif" font-size="13" lengthAdjust="spacing" textLength="78" x="507.2534" y="683.2178">&#30830;&#35748;&#20445;&#23384;&#25104;&#21151;</text></g><g class="message" data-participant-1="Backend" data-participant-2="Frontend"><polygon fill="#181818" points="145,715.7715,135,719.7715,145,723.7715,141,719.7715" style="stroke:#181818;stroke-width:1;"/><line style="stroke:#181818;stroke-width:1;stroke-dasharray:2,2;" x1="139" x2="484.2534" y1="719.7715" y2="719.7715"/><text fill="#000000" font-family="sans-serif" font-size="13" lengthAdjust="spacing" textLength="78" x="151" y="714.5088">&#36820;&#22238;&#31456;&#33410;&#25991;&#26412;</text></g><g class="message" data-participant-1="Frontend" data-participant-2="Frontend"><line style="stroke:#181818;stroke-width:1;" x1="134" x2="176" y1="751.0625" y2="751.0625"/><line style="stroke:#181818;stroke-width:1;" x1="176" x2="176" y1="751.0625" y2="764.0625"/><line style="stroke:#181818;stroke-width:1;" x1="135" x2="176" y1="764.0625" y2="764.0625"/><polygon fill="#181818" points="145,760.0625,135,764.0625,145,768.0625,141,764.0625" style="stroke:#181818;stroke-width:1;"/><text fill="#000000" font-family="sans-serif" font-size="13" lengthAdjust="spacing" textLength="78" x="141" y="745.7998">&#25773;&#25918;&#31456;&#33410;&#35821;&#38899;</text></g><g class="message" data-participant-1="Frontend" data-participant-2="User"><polygon fill="#181818" points="33,791.3535,23,795.3535,33,799.3535,29,795.3535" style="stroke:#181818;stroke-width:1;"/><line style="stroke:#181818;stroke-width:1;stroke-dasharray:2,2;" x1="27" x2="128" y1="795.3535" y2="795.3535"/><text fill="#000000" font-family="sans-serif" font-size="13" lengthAdjust="spacing" textLength="78" x="39" y="790.0908">&#23637;&#31034;&#31456;&#33410;&#20869;&#23481;</text></g><!--SRC=[bLFTRX916BtVfvXmLPEItdDXGjEORAAr1ds04IPqfRARPTAaTvMaYhMKfg6LsEgAQPMAi12r6n3XPVXcXxTmVrYMXSMKcvdPp7VcdE-SRwb4TmY2LedhlrYj2hqIUtyBtH9Sz0K19wcieeXPhh624K4uXvxbY2eeMALIKb9mbg88l2sQTTsvVA3AMKgogPc2asElO1qdCtFtZ_OIJnuwryufU3cgLw1lm6NBqXFV4fso-4ki1Ais254IX6Gc5Q8Ws4fHzFv4L0n1Rn- -lNDR1Rt72z_j1gLTJ8altJlOqB7S6Dfwd7YArh0YhUMenRk9TwKqffAStPJNPJc3LlXlmyntLf7vf-3ie_qFl7h4pZkMd_Ty5g__yMvpsCt44DSDriwFRlgZcrjkw6Ptu8ESTkq5HQSryK4PBZwvnSD1bRtIXHG9WgPe76jZY9LEuU2Q_wtnGOUTjLYn2OKMLV4BOYUznwirdzTDmrb3cPr7n8rfLXSoeGsulnZbkU9RRm7j-2ozbRvvrNN36lio1Po45X8sFpQWT6xMF_F3FBm-W6Pd-R3JX4QJsrYXrkChpwsWnTGgyjsoltP8Dast_n-nvxrspVKlzZFBs3piV3NRnVc0PwoUOS4gmSkmm54NDEqEB74nXioonWeduTPQVrvS36Dmozdv6tRv8p2eui8n7KEyCHqdSRUsp6gJDw-6Wu_Gg5XYuL1RRauNoPsVrMaiEssmSj_5Shqnqdw63JMqpwoX3lWNDjJ_0000]--></g></svg>