<svg xmlns="http://www.w3.org/2000/svg" xmlns:xlink="http://www.w3.org/1999/xlink" contentStyleType="text/css" data-diagram-type="SEQUENCE" height="646px" preserveAspectRatio="none" style="width:725px;height:646px;background:#FFFFFF;" version="1.1" viewBox="0 0 725 646" width="725px" zoomAndPan="magnify"><title>POI&#26597;&#35810;&#26102;&#24207;&#22270;</title><defs/><g><text fill="#000000" font-family="sans-serif" font-size="14" font-weight="bold" lengthAdjust="spacing" textLength="96.3047" x="313.6816" y="30.1074">POI&#26597;&#35810;&#26102;&#24207;&#22270;</text><g><title>..</title><rect fill="#FFFFFF" height="388.4922" style="stroke:#000000;stroke-width:1;" width="10" x="145" y="156.5332"/></g><g><title>..</title><rect fill="#FFFFFF" height="281.6191" style="stroke:#000000;stroke-width:1;" width="10" x="363.2617" y="187.8242"/></g><g><title>Redis</title><rect fill="#FFFFFF" height="31.291" style="stroke:#000000;stroke-width:1;" width="10" x="475.2617" y="219.1152"/></g><g><title>Redis</title><rect fill="#FFFFFF" height="31.291" style="stroke:#000000;stroke-width:1;" width="10" x="475.2617" y="406.8613"/></g><g><title>....API</title><rect fill="#FFFFFF" height="31.291" style="stroke:#000000;stroke-width:1;" width="10" x="556.4409" y="281.6973"/></g><g><title>DeepSeekAPI</title><rect fill="#FFFFFF" height="31.291" style="stroke:#000000;stroke-width:1;" width="10" x="663.6958" y="344.2793"/></g><g><title>..</title><rect fill="#000000" fill-opacity="0.00000" height="439.7832" width="8" x="18" y="123.2422"/><line style="stroke:#000000;stroke-width:0.5;stroke-dasharray:5,5;" x1="22" x2="22" y1="123.2422" y2="563.0254"/></g><g><title>..</title><rect fill="#000000" fill-opacity="0.00000" height="439.7832" width="8" x="146" y="123.2422"/><line style="stroke:#000000;stroke-width:0.5;stroke-dasharray:5,5;" x1="150" x2="150" y1="123.2422" y2="563.0254"/></g><g><title>..</title><rect fill="#000000" fill-opacity="0.00000" height="439.7832" width="8" x="364.2617" y="123.2422"/><line style="stroke:#000000;stroke-width:0.5;stroke-dasharray:5,5;" x1="368.2617" x2="368.2617" y1="123.2422" y2="563.0254"/></g><g><title>Redis</title><rect fill="#000000" fill-opacity="0.00000" height="439.7832" width="8" x="476.2617" y="123.2422"/><line style="stroke:#000000;stroke-width:0.5;stroke-dasharray:5,5;" x1="479.3652" x2="479.3652" y1="123.2422" y2="563.0254"/></g><g><title>....API</title><rect fill="#000000" fill-opacity="0.00000" height="439.7832" width="8" x="557.4409" y="123.2422"/><line style="stroke:#000000;stroke-width:0.5;stroke-dasharray:5,5;" x1="561.1582" x2="561.1582" y1="123.2422" y2="563.0254"/></g><g><title>DeepSeekAPI</title><rect fill="#000000" fill-opacity="0.00000" height="439.7832" width="8" x="664.6958" y="123.2422"/><line style="stroke:#000000;stroke-width:0.5;stroke-dasharray:5,5;" x1="667.7236" x2="667.7236" y1="123.2422" y2="563.0254"/></g><g class="participant participant-head" data-participant="User"><text fill="#000000" font-family="sans-serif" font-size="14" lengthAdjust="spacing" textLength="28" x="5" y="119.7285">&#29992;&#25143;</text><ellipse cx="22" cy="53.1211" fill="#FFFFFF" rx="8" ry="8" style="stroke:#000000;stroke-width:0.5;"/><path d="M22,61.1211 L22,88.1211 M9,69.1211 L35,69.1211 M22,88.1211 L9,103.1211 M22,88.1211 L35,103.1211" fill="none" style="stroke:#000000;stroke-width:0.5;"/></g><g class="participant participant-tail" data-participant="User"><text fill="#000000" font-family="sans-serif" font-size="14" lengthAdjust="spacing" textLength="28" x="5" y="577.1328">&#29992;&#25143;</text><ellipse cx="22" cy="589.1465" fill="#FFFFFF" rx="8" ry="8" style="stroke:#000000;stroke-width:0.5;"/><path d="M22,597.1465 L22,624.1465 M9,605.1465 L35,605.1465 M22,624.1465 L9,639.1465 M22,624.1465 L35,639.1465" fill="none" style="stroke:#000000;stroke-width:0.5;"/></g><g class="participant participant-head" data-participant="Frontend"><rect fill="#FFFFFF" height="32.6211" rx="2.5" ry="2.5" style="stroke:#000000;stroke-width:0.5;" width="42" x="129" y="89.6211"/><text fill="#000000" font-family="sans-serif" font-size="14" lengthAdjust="spacing" textLength="28" x="136" y="111.7285">&#21069;&#31471;</text></g><g class="participant participant-tail" data-participant="Frontend"><rect fill="#FFFFFF" height="32.6211" rx="2.5" ry="2.5" style="stroke:#000000;stroke-width:0.5;" width="42" x="129" y="562.0254"/><text fill="#000000" font-family="sans-serif" font-size="14" lengthAdjust="spacing" textLength="28" x="136" y="584.1328">&#21069;&#31471;</text></g><g class="participant participant-head" data-participant="Backend"><rect fill="#FFFFFF" height="32.6211" rx="2.5" ry="2.5" style="stroke:#000000;stroke-width:0.5;" width="42" x="347.2617" y="89.6211"/><text fill="#000000" font-family="sans-serif" font-size="14" lengthAdjust="spacing" textLength="28" x="354.2617" y="111.7285">&#21518;&#31471;</text></g><g class="participant participant-tail" data-participant="Backend"><rect fill="#FFFFFF" height="32.6211" rx="2.5" ry="2.5" style="stroke:#000000;stroke-width:0.5;" width="42" x="347.2617" y="562.0254"/><text fill="#000000" font-family="sans-serif" font-size="14" lengthAdjust="spacing" textLength="28" x="354.2617" y="584.1328">&#21518;&#31471;</text></g><g class="participant participant-head" data-participant="Redis"><rect fill="#FFFFFF" height="32.6211" rx="2.5" ry="2.5" style="stroke:#000000;stroke-width:0.5;" width="49.793" x="455.3652" y="89.6211"/><text fill="#000000" font-family="sans-serif" font-size="14" lengthAdjust="spacing" textLength="35.793" x="462.3652" y="111.7285">Redis</text></g><g class="participant participant-tail" data-participant="Redis"><rect fill="#FFFFFF" height="32.6211" rx="2.5" ry="2.5" style="stroke:#000000;stroke-width:0.5;" width="49.793" x="455.3652" y="562.0254"/><text fill="#000000" font-family="sans-serif" font-size="14" lengthAdjust="spacing" textLength="35.793" x="462.3652" y="584.1328">Redis</text></g><g class="participant participant-head" data-participant="Gaode"><rect fill="#FFFFFF" height="32.6211" rx="2.5" ry="2.5" style="stroke:#000000;stroke-width:0.5;" width="92.5654" x="515.1582" y="89.6211"/><text fill="#000000" font-family="sans-serif" font-size="14" lengthAdjust="spacing" textLength="78.5654" x="522.1582" y="111.7285">&#39640;&#24503;&#22320;&#22270;API</text></g><g class="participant participant-tail" data-participant="Gaode"><rect fill="#FFFFFF" height="32.6211" rx="2.5" ry="2.5" style="stroke:#000000;stroke-width:0.5;" width="92.5654" x="515.1582" y="562.0254"/><text fill="#000000" font-family="sans-serif" font-size="14" lengthAdjust="spacing" textLength="78.5654" x="522.1582" y="584.1328">&#39640;&#24503;&#22320;&#22270;API</text></g><g class="participant participant-head" data-participant="AI"><rect fill="#FFFFFF" height="32.6211" rx="2.5" ry="2.5" style="stroke:#000000;stroke-width:0.5;" width="101.9443" x="617.7236" y="89.6211"/><text fill="#000000" font-family="sans-serif" font-size="14" lengthAdjust="spacing" textLength="87.9443" x="624.7236" y="111.7285">DeepSeekAPI</text></g><g class="participant participant-tail" data-participant="AI"><rect fill="#FFFFFF" height="32.6211" rx="2.5" ry="2.5" style="stroke:#000000;stroke-width:0.5;" width="101.9443" x="617.7236" y="562.0254"/><text fill="#000000" font-family="sans-serif" font-size="14" lengthAdjust="spacing" textLength="87.9443" x="624.7236" y="584.1328">DeepSeekAPI</text></g><g><title>..</title><rect fill="#FFFFFF" height="388.4922" style="stroke:#000000;stroke-width:1;" width="10" x="145" y="156.5332"/></g><g><title>..</title><rect fill="#FFFFFF" height="281.6191" style="stroke:#000000;stroke-width:1;" width="10" x="363.2617" y="187.8242"/></g><g><title>Redis</title><rect fill="#FFFFFF" height="31.291" style="stroke:#000000;stroke-width:1;" width="10" x="475.2617" y="219.1152"/></g><g><title>Redis</title><rect fill="#FFFFFF" height="31.291" style="stroke:#000000;stroke-width:1;" width="10" x="475.2617" y="406.8613"/></g><g><title>....API</title><rect fill="#FFFFFF" height="31.291" style="stroke:#000000;stroke-width:1;" width="10" x="556.4409" y="281.6973"/></g><g><title>DeepSeekAPI</title><rect fill="#FFFFFF" height="31.291" style="stroke:#000000;stroke-width:1;" width="10" x="663.6958" y="344.2793"/></g><g class="message" data-participant-1="User" data-participant-2="Frontend"><polygon fill="#000000" points="133,152.5332,143,156.5332,133,160.5332,137,156.5332" style="stroke:#000000;stroke-width:1;"/><line style="stroke:#000000;stroke-width:1;" x1="22" x2="139" y1="156.5332" y2="156.5332"/><text fill="#000000" font-family="sans-serif" font-size="13" lengthAdjust="spacing" textLength="104" x="29" y="151.2705">&#36873;&#28857;&#33719;&#24471;&#27983;&#35272;&#35821;&#38899;</text></g><g class="message" data-participant-1="Frontend" data-participant-2="Backend"><polygon fill="#000000" points="351.2617,183.8242,361.2617,187.8242,351.2617,191.8242,355.2617,187.8242" style="stroke:#000000;stroke-width:1;"/><line style="stroke:#000000;stroke-width:1;" x1="155" x2="357.2617" y1="187.8242" y2="187.8242"/><text fill="#000000" font-family="sans-serif" font-size="13" lengthAdjust="spacing" textLength="189.2617" x="162" y="182.5615">GET /api/getPoi (&#32463;&#32428;&#24230;, &#29992;&#25143;ID)</text></g><g class="message" data-participant-1="Backend" data-participant-2="Redis"><polygon fill="#000000" points="463.2617,215.1152,473.2617,219.1152,463.2617,223.1152,467.2617,219.1152" style="stroke:#000000;stroke-width:1;"/><line style="stroke:#000000;stroke-width:1;" x1="373.2617" x2="469.2617" y1="219.1152" y2="219.1152"/><text fill="#000000" font-family="sans-serif" font-size="13" lengthAdjust="spacing" textLength="52" x="380.2617" y="213.8525">&#26816;&#26597;&#32531;&#23384;</text></g><g class="message" data-participant-1="Redis" data-participant-2="Backend"><polygon fill="#000000" points="384.2617,246.4063,374.2617,250.4063,384.2617,254.4063,380.2617,250.4063" style="stroke:#000000;stroke-width:1;"/><line style="stroke:#000000;stroke-width:1;stroke-dasharray:2,2;" x1="378.2617" x2="479.2617" y1="250.4063" y2="250.4063"/><text fill="#000000" font-family="sans-serif" font-size="13" lengthAdjust="spacing" textLength="78" x="390.2617" y="245.1436">&#36820;&#22238;&#32531;&#23384;&#32467;&#26524;</text></g><g class="message" data-participant-1="Backend" data-participant-2="Gaode"><polygon fill="#000000" points="544.4409,277.6973,554.4409,281.6973,544.4409,285.6973,548.4409,281.6973" style="stroke:#000000;stroke-width:1;"/><line style="stroke:#000000;stroke-width:1;" x1="373.2617" x2="550.4409" y1="281.6973" y2="281.6973"/><text fill="#000000" font-family="sans-serif" font-size="13" lengthAdjust="spacing" textLength="91" x="380.2617" y="276.4346">&#35831;&#27714;&#36870;&#22320;&#29702;&#32534;&#30721;</text></g><g class="message" data-participant-1="Gaode" data-participant-2="Backend"><polygon fill="#000000" points="384.2617,308.9883,374.2617,312.9883,384.2617,316.9883,380.2617,312.9883" style="stroke:#000000;stroke-width:1;"/><line style="stroke:#000000;stroke-width:1;stroke-dasharray:2,2;" x1="378.2617" x2="560.4409" y1="312.9883" y2="312.9883"/><text fill="#000000" font-family="sans-serif" font-size="13" lengthAdjust="spacing" textLength="74.3945" x="390.2617" y="307.7256">&#36820;&#22238;POI&#20449;&#24687;</text></g><g class="message" data-participant-1="Backend" data-participant-2="AI"><polygon fill="#000000" points="651.6958,340.2793,661.6958,344.2793,651.6958,348.2793,655.6958,344.2793" style="stroke:#000000;stroke-width:1;"/><line style="stroke:#000000;stroke-width:1;" x1="373.2617" x2="657.6958" y1="344.2793" y2="344.2793"/><text fill="#000000" font-family="sans-serif" font-size="13" lengthAdjust="spacing" textLength="100.3945" x="380.2617" y="339.0166">&#29983;&#25104;POI&#27983;&#35272;&#20869;&#23481;</text></g><g class="message" data-participant-1="AI" data-participant-2="Backend"><polygon fill="#000000" points="384.2617,371.5703,374.2617,375.5703,384.2617,379.5703,380.2617,375.5703" style="stroke:#000000;stroke-width:1;"/><line style="stroke:#000000;stroke-width:1;stroke-dasharray:2,2;" x1="378.2617" x2="667.6958" y1="375.5703" y2="375.5703"/><text fill="#000000" font-family="sans-serif" font-size="13" lengthAdjust="spacing" textLength="78" x="390.2617" y="370.3076">&#36820;&#22238;&#27983;&#35272;&#25991;&#26412;</text></g><g class="message" data-participant-1="Backend" data-participant-2="Redis"><polygon fill="#000000" points="463.2617,402.8613,473.2617,406.8613,463.2617,410.8613,467.2617,406.8613" style="stroke:#000000;stroke-width:1;"/><line style="stroke:#000000;stroke-width:1;" x1="373.2617" x2="469.2617" y1="406.8613" y2="406.8613"/><text fill="#000000" font-family="sans-serif" font-size="13" lengthAdjust="spacing" textLength="78" x="380.2617" y="401.5986">&#32531;&#23384;&#27983;&#35272;&#25688;&#35201;</text></g><g class="message" data-participant-1="Redis" data-participant-2="Backend"><polygon fill="#000000" points="384.2617,434.1523,374.2617,438.1523,384.2617,442.1523,380.2617,438.1523" style="stroke:#000000;stroke-width:1;"/><line style="stroke:#000000;stroke-width:1;stroke-dasharray:2,2;" x1="378.2617" x2="479.2617" y1="438.1523" y2="438.1523"/><text fill="#000000" font-family="sans-serif" font-size="13" lengthAdjust="spacing" textLength="52" x="390.2617" y="432.8896">&#30830;&#35748;&#32531;&#23384;</text></g><g class="message" data-participant-1="Backend" data-participant-2="Frontend"><polygon fill="#000000" points="166,465.4434,156,469.4434,166,473.4434,162,469.4434" style="stroke:#000000;stroke-width:1;"/><line style="stroke:#000000;stroke-width:1;stroke-dasharray:2,2;" x1="160" x2="367.2617" y1="469.4434" y2="469.4434"/><text fill="#000000" font-family="sans-serif" font-size="13" lengthAdjust="spacing" textLength="78" x="172" y="464.1807">&#36820;&#22238;&#27983;&#35272;&#25991;&#26412;</text></g><g class="message" data-participant-1="Frontend" data-participant-2="Frontend"><line style="stroke:#000000;stroke-width:1;" x1="155" x2="197" y1="500.7344" y2="500.7344"/><line style="stroke:#000000;stroke-width:1;" x1="197" x2="197" y1="500.7344" y2="513.7344"/><line style="stroke:#000000;stroke-width:1;" x1="156" x2="197" y1="513.7344" y2="513.7344"/><polygon fill="#000000" points="166,509.7344,156,513.7344,166,517.7344,162,513.7344" style="stroke:#000000;stroke-width:1;"/><text fill="#000000" font-family="sans-serif" font-size="13" lengthAdjust="spacing" textLength="78" x="162" y="495.4717">&#25773;&#25918;&#27983;&#35272;&#35821;&#38899;</text></g><g class="message" data-participant-1="Frontend" data-participant-2="User"><polygon fill="#000000" points="33,541.0254,23,545.0254,33,549.0254,29,545.0254" style="stroke:#000000;stroke-width:1;"/><line style="stroke:#000000;stroke-width:1;stroke-dasharray:2,2;" x1="27" x2="149" y1="545.0254" y2="545.0254"/><text fill="#000000" font-family="sans-serif" font-size="13" lengthAdjust="spacing" textLength="78" x="39" y="539.7627">&#25910;&#21548;&#27983;&#35272;&#35821;&#38899;</text></g><!--SRC=[ZLJRRX916BxVfvXmeoOslVV21ArjI9f8h3x0o8vr0ft5sMqROqoWYKYD5XG2Q4bfFLIJSl0G8QL8NwOpirpv2ixk0ZjBjurS0T_fds_-NGjRAGJYTsEyySNkVEJLBkiNsEvGqyma9cb8uHemqPDrH188FDE0_4GfDJPl6oc3WeSfc4ZwVouQn3e792o3tZAeZcWu97-jKcETw1wy-HXRo8V3BEEGMZY1qv1OuSOguK9xXHGMiemVeMLCK7Z25BtGVW5lO2bKvSGWGMn6R558J5av8fPA2vjEWLQif_86YK7NO0g0Au0LAhoRPw_snS_gty5h_huzodnWhUhPdvBsNDEWqog8YF8tdkz503J10nDHBUst0I9i-uquwhZW8fKHYEWpXEBEXE0SuXn-3-dOT67tMn0S7TNOiCVgt-MQHUCnbxO43Hq5QGi8fLSGIaueqPYcEQE2kPlJgS0DCCfiYwrZUwV7XbN-ks1_pTkTrgZnopaete0Mye-WJMNIOZotT5YwSn_CmpIUNqLMtC3WgZWfY7wJzG-l0w-csC8rtsvoO6tY8CtSKqeh_YaZdoCnAB5MpLTu7NYSkK2qVLfcktiUNvoK-5vTqz6CJirnQt9qdHx_iJNAv6IBefWJWuhOp_g1NfiUEInGFkvdfmSysr7JF96Q5er9XIWtUBxel23SSbdk1MiV-r7oLYGjBCJZyyfBNc-gESuzXbJdbJ0MlQtPXzd_AL0SjEtsvt7XbrGNt9dB1vnUiBekYfg_Q_7oCB1hFbDItIMLj7AN5Pi1cX8oNSf_]--></g></svg>