<svg xmlns="http://www.w3.org/2000/svg" xmlns:xlink="http://www.w3.org/1999/xlink" contentStyleType="text/css" data-diagram-type="SEQUENCE" height="669px" preserveAspectRatio="none" style="width:649px;height:669px;background:#FFFFFF;" version="1.1" viewBox="0 0 649 669" width="649px" zoomAndPan="magnify"><defs/><g><g><title>..</title><rect fill="#000000" fill-opacity="0.00000" height="502.3652" width="8" x="18" y="83.6211"/><line style="stroke:#000000;stroke-width:0.5;stroke-dasharray:5,5;" x1="22" x2="22" y1="83.6211" y2="585.9863"/></g><g><title>..</title><rect fill="#000000" fill-opacity="0.00000" height="502.3652" width="8" x="216" y="83.6211"/><line style="stroke:#000000;stroke-width:0.5;stroke-dasharray:5,5;" x1="220" x2="220" y1="83.6211" y2="585.9863"/></g><g><title>....API</title><rect fill="#000000" fill-opacity="0.00000" height="502.3652" width="8" x="593.2827" y="83.6211"/><line style="stroke:#000000;stroke-width:0.5;stroke-dasharray:5,5;" x1="597" x2="597" y1="83.6211" y2="585.9863"/></g><g class="participant participant-head" data-participant="U"><text fill="#000000" font-family="sans-serif" font-size="14" lengthAdjust="spacing" textLength="28" x="5" y="80.1074">&#29992;&#25143;</text><ellipse cx="22" cy="13.5" fill="#FFFFFF" rx="8" ry="8" style="stroke:#000000;stroke-width:0.5;"/><path d="M22,21.5 L22,48.5 M9,29.5 L35,29.5 M22,48.5 L9,63.5 M22,48.5 L35,63.5" fill="none" style="stroke:#000000;stroke-width:0.5;"/></g><g class="participant participant-tail" data-participant="U"><text fill="#000000" font-family="sans-serif" font-size="14" lengthAdjust="spacing" textLength="28" x="5" y="600.0938">&#29992;&#25143;</text><ellipse cx="22" cy="612.1074" fill="#FFFFFF" rx="8" ry="8" style="stroke:#000000;stroke-width:0.5;"/><path d="M22,620.1074 L22,647.1074 M9,628.1074 L35,628.1074 M22,647.1074 L9,662.1074 M22,647.1074 L35,662.1074" fill="none" style="stroke:#000000;stroke-width:0.5;"/></g><g class="participant participant-head" data-participant="F"><rect fill="#FFFFFF" height="32.6211" rx="2.5" ry="2.5" style="stroke:#181818;stroke-width:0.5;" width="42" x="199" y="50"/><text fill="#000000" font-family="sans-serif" font-size="14" lengthAdjust="spacing" textLength="28" x="206" y="72.1074">&#21069;&#31471;</text></g><g class="participant participant-tail" data-participant="F"><rect fill="#FFFFFF" height="32.6211" rx="2.5" ry="2.5" style="stroke:#181818;stroke-width:0.5;" width="42" x="199" y="584.9863"/><text fill="#000000" font-family="sans-serif" font-size="14" lengthAdjust="spacing" textLength="28" x="206" y="607.0938">&#21069;&#31471;</text></g><g class="participant participant-head" data-participant="A"><rect fill="#FFFFFF" height="32.6211" rx="2.5" ry="2.5" style="stroke:#181818;stroke-width:0.5;" width="92.5654" x="551" y="50"/><text fill="#000000" font-family="sans-serif" font-size="14" lengthAdjust="spacing" textLength="78.5654" x="558" y="72.1074">&#39640;&#24503;&#22320;&#22270;API</text></g><g class="participant participant-tail" data-participant="A"><rect fill="#FFFFFF" height="32.6211" rx="2.5" ry="2.5" style="stroke:#181818;stroke-width:0.5;" width="92.5654" x="551" y="584.9863"/><text fill="#000000" font-family="sans-serif" font-size="14" lengthAdjust="spacing" textLength="78.5654" x="558" y="607.0938">&#39640;&#24503;&#22320;&#22270;API</text></g><g class="message" data-participant-1="U" data-participant-2="F"><polygon fill="#000000" points="208,112.9121,218,116.9121,208,120.9121,212,116.9121" style="stroke:#000000;stroke-width:1;"/><line style="stroke:#000000;stroke-width:1;" x1="22" x2="214" y1="116.9121" y2="116.9121"/><text fill="#000000" font-family="sans-serif" font-size="13" lengthAdjust="spacing" textLength="52" x="29" y="111.6494">&#25171;&#24320;&#39029;&#38754;</text></g><g class="message" data-participant-1="F" data-participant-2="A"><polygon fill="#000000" points="585.2827,144.2031,595.2827,148.2031,585.2827,152.2031,589.2827,148.2031" style="stroke:#000000;stroke-width:1;"/><line style="stroke:#000000;stroke-width:1;" x1="220" x2="591.2827" y1="148.2031" y2="148.2031"/><text fill="#000000" font-family="sans-serif" font-size="13" lengthAdjust="spacing" textLength="130" x="227" y="142.9404">&#21021;&#22987;&#21270;&#22320;&#22270;&#24182;&#33719;&#21462;&#20301;&#32622;</text></g><g class="message" data-participant-1="A" data-participant-2="F"><polygon fill="#000000" points="231,175.4941,221,179.4941,231,183.4941,227,179.4941" style="stroke:#000000;stroke-width:1;"/><line style="stroke:#000000;stroke-width:1;stroke-dasharray:2,2;" x1="225" x2="596.2827" y1="179.4941" y2="179.4941"/><text fill="#000000" font-family="sans-serif" font-size="13" lengthAdjust="spacing" textLength="78" x="237" y="174.2314">&#36820;&#22238;&#20301;&#32622;&#20449;&#24687;</text></g><g class="message" data-participant-1="F" data-participant-2="U"><polygon fill="#000000" points="33,206.7852,23,210.7852,33,214.7852,29,210.7852" style="stroke:#000000;stroke-width:1;"/><line style="stroke:#000000;stroke-width:1;stroke-dasharray:2,2;" x1="27" x2="219" y1="210.7852" y2="210.7852"/><text fill="#000000" font-family="sans-serif" font-size="13" lengthAdjust="spacing" textLength="117" x="39" y="205.5225">&#26174;&#31034;&#22320;&#22270;&#21644;&#29992;&#25143;&#26631;&#35760;</text></g><g class="message" data-participant-1="U" data-participant-2="F"><polygon fill="#000000" points="208,238.0762,218,242.0762,208,246.0762,212,242.0762" style="stroke:#000000;stroke-width:1;"/><line style="stroke:#000000;stroke-width:1;" x1="22" x2="214" y1="242.0762" y2="242.0762"/><text fill="#000000" font-family="sans-serif" font-size="13" lengthAdjust="spacing" textLength="130" x="29" y="236.8135">&#25628;&#32034;&#25110;&#28857;&#20987;&#36873;&#25321;&#30446;&#30340;&#22320;</text></g><g class="message" data-participant-1="F" data-participant-2="A"><polygon fill="#000000" points="585.2827,269.3672,595.2827,273.3672,585.2827,277.3672,589.2827,273.3672" style="stroke:#000000;stroke-width:1;"/><line style="stroke:#000000;stroke-width:1;" x1="220" x2="591.2827" y1="273.3672" y2="273.3672"/><text fill="#000000" font-family="sans-serif" font-size="13" lengthAdjust="spacing" textLength="81.6118" x="227" y="268.1045">&#25628;&#32034;/&#26631;&#35760;&#22320;&#28857;</text></g><g class="message" data-participant-1="A" data-participant-2="F"><polygon fill="#000000" points="231,300.6582,221,304.6582,231,308.6582,227,304.6582" style="stroke:#000000;stroke-width:1;"/><line style="stroke:#000000;stroke-width:1;stroke-dasharray:2,2;" x1="225" x2="596.2827" y1="304.6582" y2="304.6582"/><text fill="#000000" font-family="sans-serif" font-size="13" lengthAdjust="spacing" textLength="91" x="237" y="299.3955">&#36820;&#22238;&#32467;&#26524;&#24182;&#26631;&#35760;</text></g><g class="message" data-participant-1="U" data-participant-2="F"><polygon fill="#000000" points="208,331.9492,218,335.9492,208,339.9492,212,335.9492" style="stroke:#000000;stroke-width:1;"/><line style="stroke:#000000;stroke-width:1;" x1="22" x2="214" y1="335.9492" y2="335.9492"/><text fill="#000000" font-family="sans-serif" font-size="13" lengthAdjust="spacing" textLength="87.2295" x="29" y="330.6865">&#28857;&#20987;"&#24320;&#22987;&#23548;&#33322;"</text></g><g class="message" data-participant-1="F" data-participant-2="A"><polygon fill="#000000" points="585.2827,363.2402,595.2827,367.2402,585.2827,371.2402,589.2827,367.2402" style="stroke:#000000;stroke-width:1;"/><line style="stroke:#000000;stroke-width:1;" x1="220" x2="591.2827" y1="367.2402" y2="367.2402"/><text fill="#000000" font-family="sans-serif" font-size="13" lengthAdjust="spacing" textLength="52" x="227" y="361.9775">&#35268;&#21010;&#36335;&#24452;</text></g><g class="message" data-participant-1="A" data-participant-2="F"><polygon fill="#000000" points="231,394.5313,221,398.5313,231,402.5313,227,398.5313" style="stroke:#000000;stroke-width:1;"/><line style="stroke:#000000;stroke-width:1;stroke-dasharray:2,2;" x1="225" x2="596.2827" y1="398.5313" y2="398.5313"/><text fill="#000000" font-family="sans-serif" font-size="13" lengthAdjust="spacing" textLength="52" x="237" y="393.2686">&#26174;&#31034;&#36335;&#32447;</text></g><g class="message" data-participant-1="F" data-participant-2="U"><polygon fill="#000000" points="33,425.8223,23,429.8223,33,433.8223,29,429.8223" style="stroke:#000000;stroke-width:1;"/><line style="stroke:#000000;stroke-width:1;stroke-dasharray:2,2;" x1="27" x2="219" y1="429.8223" y2="429.8223"/><text fill="#000000" font-family="sans-serif" font-size="13" lengthAdjust="spacing" textLength="78" x="39" y="424.5596">&#21551;&#21160;&#35821;&#38899;&#25773;&#25253;</text></g><g class="message" data-participant-1="U" data-participant-2="F"><polygon fill="#000000" points="208,457.1133,218,461.1133,208,465.1133,212,461.1133" style="stroke:#000000;stroke-width:1;"/><line style="stroke:#000000;stroke-width:1;" x1="22" x2="214" y1="461.1133" y2="461.1133"/><text fill="#000000" font-family="sans-serif" font-size="13" lengthAdjust="spacing" textLength="87.2295" x="29" y="455.8506">&#28857;&#20987;"&#20572;&#27490;&#23548;&#33322;"</text></g><g class="message" data-participant-1="F" data-participant-2="F"><line style="stroke:#000000;stroke-width:1;" x1="220" x2="262" y1="492.4043" y2="492.4043"/><line style="stroke:#000000;stroke-width:1;" x1="262" x2="262" y1="492.4043" y2="505.4043"/><line style="stroke:#000000;stroke-width:1;" x1="221" x2="262" y1="505.4043" y2="505.4043"/><polygon fill="#000000" points="231,501.4043,221,505.4043,231,509.4043,227,505.4043" style="stroke:#000000;stroke-width:1;"/><text fill="#000000" font-family="sans-serif" font-size="13" lengthAdjust="spacing" textLength="104" x="227" y="487.1416">&#28165;&#38500;&#23450;&#26102;&#22120;&#21644;&#38431;&#21015;</text></g><g class="message" data-participant-1="F" data-participant-2="A"><polygon fill="#000000" points="585.2827,532.6953,595.2827,536.6953,585.2827,540.6953,589.2827,536.6953" style="stroke:#000000;stroke-width:1;"/><line style="stroke:#000000;stroke-width:1;" x1="220" x2="591.2827" y1="536.6953" y2="536.6953"/><text fill="#000000" font-family="sans-serif" font-size="13" lengthAdjust="spacing" textLength="91" x="227" y="531.4326">&#28165;&#38500;&#36335;&#32447;&#21644;&#26631;&#35760;</text></g><g class="message" data-participant-1="F" data-participant-2="U"><polygon fill="#000000" points="33,563.9863,23,567.9863,33,571.9863,29,567.9863" style="stroke:#000000;stroke-width:1;"/><line style="stroke:#000000;stroke-width:1;stroke-dasharray:2,2;" x1="27" x2="219" y1="567.9863" y2="567.9863"/><text fill="#000000" font-family="sans-serif" font-size="13" lengthAdjust="spacing" textLength="78" x="39" y="562.7236">&#24674;&#22797;&#21021;&#22987;&#29366;&#24577;</text></g><!--SRC=[TL9BQnfH5DxVNt5narLekcWNMHIq81HIS2DT3penG-oC7Gqfb886hJF6Hp29clY84KjiWeyIwrldlnJFdPbL_qBlUDDeR3kxUxvpliUPiu4XFIPfbQXXKbBDGXUctycvGYeb5DmNn00dS-znS8_pIeU2wCExd3_88uGsCDGgaAX2vcW-I1lX6EbqONXlvhj6lun_VidY-LGpj8e-qY1JCC-rNvCa56Uas8NMT8NPnSaXmIC4E37auhnUI-BvYwsL1eVqyG_mSilIDUAtqBgS3rMIxy4eOv4EOheo9TK-J3AhflaF1xpeuV4dXEbdbsNfyBNabsJiy7EUVLRqX2JP8SbUNbw7TeHTVaSG-N-ZR92-VB9q87eP_6vF2F4BU2NM_vlUSh9F46bUz1aXpYB4-bc3A7tC1R4R1POSs0PgIhzhsop4-HGnxmemwqEfGpTXTxrPjDWHSkFDLzYvZObw2fEmUVt3BDUGqohQjp4ePRWvXcIEZS6mPwJxaCdDfobzsa9slCc63UqCYXLMdMlN9DAsA2ZcfiI5cLuVFH1aaymvgSQDLcT5_QIaTsj4oUb7GuYFpR1AZh_fnPP-6QMJZtvOspCsJG7QlMv27v_IcwHEroKOius6j2Ar9uPoQtiaDcwYe6IDVXjcqIKZiqwhz3gNWU2a3Oc6qMwQL_SasoI9ht-BH4gaMNiYOj4DOkP5dHwbTP4N3ReCit05IduPRz70z2Zwa62voKWDwYdsJ_H4ZuGZlm40]--></g></svg>