<svg xmlns="http://www.w3.org/2000/svg" xmlns:xlink="http://www.w3.org/1999/xlink" contentStyleType="text/css" data-diagram-type="SEQUENCE" height="769.5px" preserveAspectRatio="none" style="width:702px;height:769px;background:#FFFFFF;" version="1.1" viewBox="0 0 702 769" width="702.9px" zoomAndPan="magnify"><title>&#23567;&#35828;&#27169;&#24335;&#26102;&#24207;&#22270;</title><defs/><g><text fill="#000000" font-family="sans-serif" font-size="12.6" font-weight="bold" lengthAdjust="spacing" textLength="90.9563" x="305.407" y="27.0967">&#23567;&#35828;&#27169;&#24335;&#26102;&#24207;&#22270;</text><g><title>..</title><rect fill="#FFFFFF" height="156.3715" style="stroke:#000000;stroke-width:0.9;" width="9" x="111.6" y="140.8799"/></g><g><title>..</title><rect fill="#FFFFFF" height="353.5049" style="stroke:#000000;stroke-width:0.9;" width="9" x="111.6" y="325.4133"/></g><g><title>..</title><rect fill="#FFFFFF" height="84.4857" style="stroke:#000000;stroke-width:0.9;" width="9" x="314.5825" y="184.6037"/></g><g><title>..</title><rect fill="#FFFFFF" height="253.4572" style="stroke:#000000;stroke-width:0.9;" width="9" x="314.5825" y="369.1371"/></g><g><title>MySQL</title><rect fill="#FFFFFF" height="28.1619" style="stroke:#000000;stroke-width:0.9;" width="9" x="473.3073" y="397.299"/></g><g><title>MySQL</title><rect fill="#FFFFFF" height="28.1619" style="stroke:#000000;stroke-width:0.9;" width="9" x="473.3073" y="453.6229"/></g><g><title>MySQL</title><rect fill="#FFFFFF" height="28.1619" style="stroke:#000000;stroke-width:0.9;" width="9" x="473.3073" y="566.2705"/></g><g><title>....API</title><rect fill="#FFFFFF" height="28.1619" style="stroke:#000000;stroke-width:0.9;" width="9" x="551.2658" y="212.7656"/></g><g><title>DeepSeekAPI</title><rect fill="#FFFFFF" height="28.1619" style="stroke:#000000;stroke-width:0.9;" width="9" x="647.7952" y="509.9467"/></g><g><title>..</title><rect fill="#000000" fill-opacity="0.00000" height="584.2002" width="7.2" x="16.2" y="110.918"/><line style="stroke:#000000;stroke-width:0.45;stroke-dasharray:4.5,4.5;" x1="19.8" x2="19.8" y1="110.918" y2="695.1182"/></g><g><title>..</title><rect fill="#000000" fill-opacity="0.00000" height="584.2002" width="7.2" x="112.5" y="110.918"/><line style="stroke:#000000;stroke-width:0.45;stroke-dasharray:4.5,4.5;" x1="116.1" x2="116.1" y1="110.918" y2="695.1182"/></g><g><title>..</title><rect fill="#000000" fill-opacity="0.00000" height="584.2002" width="7.2" x="315.4825" y="110.918"/><line style="stroke:#000000;stroke-width:0.45;stroke-dasharray:4.5,4.5;" x1="319.0825" x2="319.0825" y1="110.918" y2="695.1182"/></g><g><title>MySQL</title><rect fill="#000000" fill-opacity="0.00000" height="584.2002" width="7.2" x="474.2073" y="110.918"/><line style="stroke:#000000;stroke-width:0.45;stroke-dasharray:4.5,4.5;" x1="477.5032" x2="477.5032" y1="110.918" y2="695.1182"/></g><g><title>....API</title><rect fill="#000000" fill-opacity="0.00000" height="584.2002" width="7.2" x="552.1658" y="110.918"/><line style="stroke:#000000;stroke-width:0.45;stroke-dasharray:4.5,4.5;" x1="555.5114" x2="555.5114" y1="110.918" y2="695.1182"/></g><g><title>DeepSeekAPI</title><rect fill="#000000" fill-opacity="0.00000" height="584.2002" width="7.2" x="648.6952" y="110.918"/><line style="stroke:#000000;stroke-width:0.45;stroke-dasharray:4.5,4.5;" x1="651.4203" x2="651.4203" y1="110.918" y2="695.1182"/></g><g class="participant participant-head" data-participant="User"><text fill="#000000" font-family="sans-serif" font-size="12.6" lengthAdjust="spacing" textLength="25.2" x="4.5" y="107.7557">&#29992;&#25143;</text><ellipse cx="19.8" cy="47.809" fill="#FFFFFF" rx="7.2" ry="7.2" style="stroke:#000000;stroke-width:0.45;"/><path d="M19.8,55.009 L19.8,79.309 M8.1,62.209 L31.5,62.209 M19.8,79.309 L8.1,92.809 M19.8,79.309 L31.5,92.809" fill="none" style="stroke:#000000;stroke-width:0.45;"/></g><g class="participant participant-tail" data-participant="User"><text fill="#000000" font-family="sans-serif" font-size="12.6" lengthAdjust="spacing" textLength="25.2" x="4.5" y="707.8148">&#29992;&#25143;</text><ellipse cx="19.8" cy="718.6271" fill="#FFFFFF" rx="7.2" ry="7.2" style="stroke:#000000;stroke-width:0.45;"/><path d="M19.8,725.8271 L19.8,750.1271 M8.1,733.0271 L31.5,733.0271 M19.8,750.1271 L8.1,763.6271 M19.8,750.1271 L31.5,763.6271" fill="none" style="stroke:#000000;stroke-width:0.45;"/></g><g class="participant participant-head" data-participant="Frontend"><rect fill="#FFFFFF" height="29.359" rx="2.25" ry="2.25" style="stroke:#000000;stroke-width:0.45;" width="37.8" x="97.2" y="80.659"/><text fill="#000000" font-family="sans-serif" font-size="12.6" lengthAdjust="spacing" textLength="25.2" x="103.5" y="100.5557">&#21069;&#31471;</text></g><g class="participant participant-tail" data-participant="Frontend"><rect fill="#FFFFFF" height="29.359" rx="2.25" ry="2.25" style="stroke:#000000;stroke-width:0.45;" width="37.8" x="97.2" y="694.2182"/><text fill="#000000" font-family="sans-serif" font-size="12.6" lengthAdjust="spacing" textLength="25.2" x="103.5" y="714.1148">&#21069;&#31471;</text></g><g class="participant participant-head" data-participant="Backend"><rect fill="#FFFFFF" height="29.359" rx="2.25" ry="2.25" style="stroke:#000000;stroke-width:0.45;" width="37.8" x="300.1825" y="80.659"/><text fill="#000000" font-family="sans-serif" font-size="12.6" lengthAdjust="spacing" textLength="25.2" x="306.4825" y="100.5557">&#21518;&#31471;</text></g><g class="participant participant-tail" data-participant="Backend"><rect fill="#FFFFFF" height="29.359" rx="2.25" ry="2.25" style="stroke:#000000;stroke-width:0.45;" width="37.8" x="300.1825" y="694.2182"/><text fill="#000000" font-family="sans-serif" font-size="12.6" lengthAdjust="spacing" textLength="25.2" x="306.4825" y="714.1148">&#21518;&#31471;</text></g><g class="participant participant-head" data-participant="DB"><rect fill="#FFFFFF" height="29.359" rx="2.25" ry="2.25" style="stroke:#000000;stroke-width:0.45;" width="54.6082" x="450.5032" y="80.659"/><text fill="#000000" font-family="sans-serif" font-size="12.6" lengthAdjust="spacing" textLength="42.0082" x="456.8032" y="100.5557">MySQL</text></g><g class="participant participant-tail" data-participant="DB"><rect fill="#FFFFFF" height="29.359" rx="2.25" ry="2.25" style="stroke:#000000;stroke-width:0.45;" width="54.6082" x="450.5032" y="694.2182"/><text fill="#000000" font-family="sans-serif" font-size="12.6" lengthAdjust="spacing" textLength="42.0082" x="456.8032" y="714.1148">MySQL</text></g><g class="participant participant-head" data-participant="Gaode"><rect fill="#FFFFFF" height="29.359" rx="2.25" ry="2.25" style="stroke:#000000;stroke-width:0.45;" width="83.3089" x="514.1114" y="80.659"/><text fill="#000000" font-family="sans-serif" font-size="12.6" lengthAdjust="spacing" textLength="70.7089" x="520.4114" y="100.5557">&#39640;&#24503;&#22320;&#22270;API</text></g><g class="participant participant-tail" data-participant="Gaode"><rect fill="#FFFFFF" height="29.359" rx="2.25" ry="2.25" style="stroke:#000000;stroke-width:0.45;" width="83.3089" x="514.1114" y="694.2182"/><text fill="#000000" font-family="sans-serif" font-size="12.6" lengthAdjust="spacing" textLength="70.7089" x="520.4114" y="714.1148">&#39640;&#24503;&#22320;&#22270;API</text></g><g class="participant participant-head" data-participant="AI"><rect fill="#FFFFFF" height="29.359" rx="2.25" ry="2.25" style="stroke:#000000;stroke-width:0.45;" width="91.7499" x="606.4203" y="80.659"/><text fill="#000000" font-family="sans-serif" font-size="12.6" lengthAdjust="spacing" textLength="79.1499" x="612.7203" y="100.5557">DeepSeekAPI</text></g><g class="participant participant-tail" data-participant="AI"><rect fill="#FFFFFF" height="29.359" rx="2.25" ry="2.25" style="stroke:#000000;stroke-width:0.45;" width="91.7499" x="606.4203" y="694.2182"/><text fill="#000000" font-family="sans-serif" font-size="12.6" lengthAdjust="spacing" textLength="79.1499" x="612.7203" y="714.1148">DeepSeekAPI</text></g><g><title>..</title><rect fill="#FFFFFF" height="156.3715" style="stroke:#000000;stroke-width:0.9;" width="9" x="111.6" y="140.8799"/></g><g><title>..</title><rect fill="#FFFFFF" height="353.5049" style="stroke:#000000;stroke-width:0.9;" width="9" x="111.6" y="325.4133"/></g><g><title>..</title><rect fill="#FFFFFF" height="84.4857" style="stroke:#000000;stroke-width:0.9;" width="9" x="314.5825" y="184.6037"/></g><g><title>..</title><rect fill="#FFFFFF" height="253.4572" style="stroke:#000000;stroke-width:0.9;" width="9" x="314.5825" y="369.1371"/></g><g><title>MySQL</title><rect fill="#FFFFFF" height="28.1619" style="stroke:#000000;stroke-width:0.9;" width="9" x="473.3073" y="397.299"/></g><g><title>MySQL</title><rect fill="#FFFFFF" height="28.1619" style="stroke:#000000;stroke-width:0.9;" width="9" x="473.3073" y="453.6229"/></g><g><title>MySQL</title><rect fill="#FFFFFF" height="28.1619" style="stroke:#000000;stroke-width:0.9;" width="9" x="473.3073" y="566.2705"/></g><g><title>....API</title><rect fill="#FFFFFF" height="28.1619" style="stroke:#000000;stroke-width:0.9;" width="9" x="551.2658" y="212.7656"/></g><g><title>DeepSeekAPI</title><rect fill="#FFFFFF" height="28.1619" style="stroke:#000000;stroke-width:0.9;" width="9" x="647.7952" y="509.9467"/></g><g class="message" data-participant-1="User" data-participant-2="Frontend"><polygon fill="#000000" points="100.8,137.2799,109.8,140.8799,100.8,144.4799,104.4,140.8799" style="stroke:#000000;stroke-width:0.9;"/><line style="stroke:#000000;stroke-width:0.9;" x1="19.8" x2="106.2" y1="140.8799" y2="140.8799"/><text fill="#000000" font-family="sans-serif" font-size="11.7" lengthAdjust="spacing" textLength="70.2" x="26.1" y="136.1435">&#24320;&#22987;&#23567;&#35828;&#23548;&#33322;</text></g><g class="message" data-participant-1="Frontend" data-participant-2="Backend"><polygon fill="#000000" points="303.7825,181.0037,312.7825,184.6037,303.7825,188.2037,307.3825,184.6037" style="stroke:#000000;stroke-width:0.9;"/><line style="stroke:#000000;stroke-width:0.9;" x1="120.6" x2="309.1825" y1="184.6037" y2="184.6037"/><text fill="#000000" font-family="sans-serif" font-size="11.7" lengthAdjust="spacing" textLength="176.8825" x="126.9" y="164.3054">POST /api/startNavigationNoBook</text><text fill="#000000" font-family="sans-serif" font-size="11.7" lengthAdjust="spacing" textLength="114.3949" x="126.9" y="179.8673">(&#36215;&#28857;, &#32456;&#28857;, &#36890;&#34892;&#26041;&#24335;)</text></g><g class="message" data-participant-1="Backend" data-participant-2="Gaode"><polygon fill="#000000" points="540.4658,209.1656,549.4658,212.7656,540.4658,216.3656,544.0658,212.7656" style="stroke:#000000;stroke-width:0.9;"/><line style="stroke:#000000;stroke-width:0.9;" x1="323.5825" x2="545.8658" y1="212.7656" y2="212.7656"/><text fill="#000000" font-family="sans-serif" font-size="11.7" lengthAdjust="spacing" textLength="70.2" x="329.8825" y="208.0292">&#35831;&#27714;&#39550;&#39542;&#36335;&#32447;</text></g><g class="message" data-participant-1="Gaode" data-participant-2="Backend"><polygon fill="#000000" points="333.4825,237.3275,324.4825,240.9275,333.4825,244.5275,329.8825,240.9275" style="stroke:#000000;stroke-width:0.9;"/><line style="stroke:#000000;stroke-width:0.9;stroke-dasharray:1.8,1.8;" x1="328.0825" x2="554.8658" y1="240.9275" y2="240.9275"/><text fill="#000000" font-family="sans-serif" font-size="11.7" lengthAdjust="spacing" textLength="70.2" x="338.8825" y="236.1911">&#36820;&#22238;&#36335;&#32447;&#20449;&#24687;</text></g><g class="message" data-participant-1="Backend" data-participant-2="Frontend"><polygon fill="#000000" points="130.5,265.4895,121.5,269.0895,130.5,272.6895,126.9,269.0895" style="stroke:#000000;stroke-width:0.9;"/><line style="stroke:#000000;stroke-width:0.9;stroke-dasharray:1.8,1.8;" x1="125.1" x2="318.1825" y1="269.0895" y2="269.0895"/><text fill="#000000" font-family="sans-serif" font-size="11.7" lengthAdjust="spacing" textLength="58.5" x="135.9" y="264.353">&#36820;&#22238;&#36712;&#36857;ID</text></g><g class="message" data-participant-1="Frontend" data-participant-2="User"><polygon fill="#000000" points="29.7,293.6514,20.7,297.2514,29.7,300.8514,26.1,297.2514" style="stroke:#000000;stroke-width:0.9;"/><line style="stroke:#000000;stroke-width:0.9;stroke-dasharray:1.8,1.8;" x1="24.3" x2="115.2" y1="297.2514" y2="297.2514"/><text fill="#000000" font-family="sans-serif" font-size="11.7" lengthAdjust="spacing" textLength="70.2" x="35.1" y="292.5149">&#26174;&#31034;&#23548;&#33322;&#36335;&#32447;</text></g><g class="message" data-participant-1="User" data-participant-2="Frontend"><polygon fill="#000000" points="100.8,321.8133,109.8,325.4133,100.8,329.0133,104.4,325.4133" style="stroke:#000000;stroke-width:0.9;"/><line style="stroke:#000000;stroke-width:0.9;" x1="19.8" x2="106.2" y1="325.4133" y2="325.4133"/><text fill="#000000" font-family="sans-serif" font-size="11.7" lengthAdjust="spacing" textLength="70.2" x="26.1" y="320.6769">&#33719;&#21462;&#31456;&#33410;&#20869;&#23481;</text></g><g class="message" data-participant-1="Frontend" data-participant-2="Backend"><polygon fill="#000000" points="303.7825,365.5371,312.7825,369.1371,303.7825,372.7371,307.3825,369.1371" style="stroke:#000000;stroke-width:0.9;"/><line style="stroke:#000000;stroke-width:0.9;" x1="120.6" x2="309.1825" y1="369.1371" y2="369.1371"/><text fill="#000000" font-family="sans-serif" font-size="11.7" lengthAdjust="spacing" textLength="116.4059" x="126.9" y="348.8388">POST /api/get-chapter</text><text fill="#000000" font-family="sans-serif" font-size="11.7" lengthAdjust="spacing" textLength="145.673" x="126.9" y="364.4007">(bookId, trajectoryId, length)</text></g><g class="message" data-participant-1="Backend" data-participant-2="DB"><polygon fill="#000000" points="462.5073,393.699,471.5073,397.299,462.5073,400.899,466.1073,397.299" style="stroke:#000000;stroke-width:0.9;"/><line style="stroke:#000000;stroke-width:0.9;" x1="323.5825" x2="467.9073" y1="397.299" y2="397.299"/><text fill="#000000" font-family="sans-serif" font-size="11.7" lengthAdjust="spacing" textLength="60.4709" x="329.8825" y="392.5626">&#26597;&#35810;book&#34920;</text></g><g class="message" data-participant-1="DB" data-participant-2="Backend"><polygon fill="#000000" points="333.4825,421.8609,324.4825,425.4609,333.4825,429.0609,329.8825,425.4609" style="stroke:#000000;stroke-width:0.9;"/><line style="stroke:#000000;stroke-width:0.9;stroke-dasharray:1.8,1.8;" x1="328.0825" x2="476.9073" y1="425.4609" y2="425.4609"/><text fill="#000000" font-family="sans-serif" font-size="11.7" lengthAdjust="spacing" textLength="70.2" x="338.8825" y="420.7245">&#36820;&#22238;&#20070;&#31821;&#20449;&#24687;</text></g><g class="message" data-participant-1="Backend" data-participant-2="DB"><polygon fill="#000000" points="462.5073,450.0229,471.5073,453.6229,462.5073,457.2229,466.1073,453.6229" style="stroke:#000000;stroke-width:0.9;"/><line style="stroke:#000000;stroke-width:0.9;" x1="323.5825" x2="467.9073" y1="453.6229" y2="453.6229"/><text fill="#000000" font-family="sans-serif" font-size="11.7" lengthAdjust="spacing" textLength="58.5171" x="329.8825" y="448.8864">&#26597;&#35810;area&#34920;</text></g><g class="message" data-participant-1="DB" data-participant-2="Backend"><polygon fill="#000000" points="333.4825,478.1848,324.4825,481.7848,333.4825,485.3848,329.8825,481.7848" style="stroke:#000000;stroke-width:0.9;"/><line style="stroke:#000000;stroke-width:0.9;stroke-dasharray:1.8,1.8;" x1="328.0825" x2="476.9073" y1="481.7848" y2="481.7848"/><text fill="#000000" font-family="sans-serif" font-size="11.7" lengthAdjust="spacing" textLength="70.2" x="338.8825" y="477.0483">&#36820;&#22238;&#21306;&#22495;&#20449;&#24687;</text></g><g class="message" data-participant-1="Backend" data-participant-2="AI"><polygon fill="#000000" points="636.9952,506.3467,645.9952,509.9467,636.9952,513.5467,640.5952,509.9467" style="stroke:#000000;stroke-width:0.9;"/><line style="stroke:#000000;stroke-width:0.9;" x1="323.5825" x2="642.3952" y1="509.9467" y2="509.9467"/><text fill="#000000" font-family="sans-serif" font-size="11.7" lengthAdjust="spacing" textLength="70.2" x="329.8825" y="505.2103">&#29983;&#25104;&#31456;&#33410;&#20869;&#23481;</text></g><g class="message" data-participant-1="AI" data-participant-2="Backend"><polygon fill="#000000" points="333.4825,534.5086,324.4825,538.1086,333.4825,541.7086,329.8825,538.1086" style="stroke:#000000;stroke-width:0.9;"/><line style="stroke:#000000;stroke-width:0.9;stroke-dasharray:1.8,1.8;" x1="328.0825" x2="651.3952" y1="538.1086" y2="538.1086"/><text fill="#000000" font-family="sans-serif" font-size="11.7" lengthAdjust="spacing" textLength="70.2" x="338.8825" y="533.3722">&#36820;&#22238;&#31456;&#33410;&#25991;&#26412;</text></g><g class="message" data-participant-1="Backend" data-participant-2="DB"><polygon fill="#000000" points="462.5073,562.6705,471.5073,566.2705,462.5073,569.8705,466.1073,566.2705" style="stroke:#000000;stroke-width:0.9;"/><line style="stroke:#000000;stroke-width:0.9;" x1="323.5825" x2="467.9073" y1="566.2705" y2="566.2705"/><text fill="#000000" font-family="sans-serif" font-size="11.7" lengthAdjust="spacing" textLength="132.6248" x="329.8825" y="561.5341">&#25554;&#20837;&#31456;&#33410;&#25968;&#25454;&#21040;chapter&#34920;</text></g><g class="message" data-participant-1="DB" data-participant-2="Backend"><polygon fill="#000000" points="333.4825,590.8324,324.4825,594.4324,333.4825,598.0324,329.8825,594.4324" style="stroke:#000000;stroke-width:0.9;"/><line style="stroke:#000000;stroke-width:0.9;stroke-dasharray:1.8,1.8;" x1="328.0825" x2="476.9073" y1="594.4324" y2="594.4324"/><text fill="#000000" font-family="sans-serif" font-size="11.7" lengthAdjust="spacing" textLength="70.2" x="338.8825" y="589.696">&#30830;&#35748;&#20445;&#23384;&#25104;&#21151;</text></g><g class="message" data-participant-1="Backend" data-participant-2="Frontend"><polygon fill="#000000" points="130.5,618.9943,121.5,622.5943,130.5,626.1943,126.9,622.5943" style="stroke:#000000;stroke-width:0.9;"/><line style="stroke:#000000;stroke-width:0.9;stroke-dasharray:1.8,1.8;" x1="125.1" x2="318.1825" y1="622.5943" y2="622.5943"/><text fill="#000000" font-family="sans-serif" font-size="11.7" lengthAdjust="spacing" textLength="70.2" x="135.9" y="617.8579">&#36820;&#22238;&#31456;&#33410;&#25991;&#26412;</text></g><g class="message" data-participant-1="Frontend" data-participant-2="User"><polygon fill="#000000" points="29.7,647.1563,20.7,650.7563,29.7,654.3563,26.1,650.7563" style="stroke:#000000;stroke-width:0.9;"/><line style="stroke:#000000;stroke-width:0.9;" x1="24.3" x2="110.7" y1="650.7563" y2="650.7563"/><text fill="#000000" font-family="sans-serif" font-size="11.7" lengthAdjust="spacing" textLength="70.2" x="35.1" y="646.0198">&#25773;&#25918;&#31456;&#33410;&#35821;&#38899;</text></g><g class="message" data-participant-1="User" data-participant-2="Frontend"><polygon fill="#000000" points="105.3,675.3182,114.3,678.9182,105.3,682.5182,108.9,678.9182" style="stroke:#000000;stroke-width:0.9;"/><line style="stroke:#000000;stroke-width:0.9;stroke-dasharray:1.8,1.8;" x1="19.8" x2="110.7" y1="678.9182" y2="678.9182"/><text fill="#000000" font-family="sans-serif" font-size="11.7" lengthAdjust="spacing" textLength="70.2" x="26.1" y="674.1817">&#25910;&#21548;&#31456;&#33410;&#20869;&#23481;</text></g><!--SRC=[dLHTJzfG6BxlhpZnnYsPyTvaIs14G-AS2zkkTdE4C-p0bfMZnYnBc8aJdO9nJ9sw8Oiwd49nEX14-3CzxU7Alx1J2hIL4fRrXhJFyxmVp_k-309II5BvKircI3MfRXT99KdsQXpcSHZrmA8XNeX02Sw0A7exYmG_0kyum1wN98dpZyMmA86fCFI7p8-Zee2x03yM9RSe1P3a3B6te2JE2W43df_cCJ9Xfv2JKCAyduz00Ji7jX9wXhUGd9ACyw_HE2yWvmmTj6Tu3p_7Cw5LBeY27RiZnX8Keino960hpQaw2-J32so6WYZDm300Wu0ajzHYdAmUQB-tRwjhwjTy8xPBSjlApMVkFSVm_AvINY79HUKgGMDBjzMuSfqWfMEwV46I5qp1lljUZZKo5RO8obMCBb_ULbSug4y336Yfh1el3G0O1I-YIE8YfejWWAoiQwTo4noLM6b82DmXR2JQ1BtvBlp9Wk_PU1FskEr8utI7r4faly1MqpNfRNB6e1X0Tfe7eOWFeL2Rul9ohEM7dGUGQepy_6HiF96hDFxBWd9wIs3eKQTwCE8WqAtWvo16PfDSHy34hSwOTlAfxpaOXX5-E8fPbHDmZWz2p8l2XEWMnT0huHxzKz8Mom-0TXrl_h9HqSoQkbLcftZVJDGsYsl7PccQtRCaL2wfvukDarhZf4XBibQfcph38OCvP2kDrbDaxxl1L-ePzOFC1T0TdPdDRabBUvEbzRBNOzMrwpJjOCgcgID0tQbfXnN3mbQT5gLffMrSD55Y-woT7j3LHV9nYUJBVSRLBVYVSGKH7l9FmmX64XlI59kLD_10lyytI3-31VqjZ8GWdkup98zRxpnzHEKVUXIQoPfyjk8CTXgBKZxMpjUxny8KFOApFmtuZy79MeMaqts3kxnCeQNIQdp3sKrsMepZbC7WgrlBwlwPDOD-Z5tb9pV9qb5ByQMWhkT9lD2olcz3MYPFyuTA_Hl9xR0woMgwPqDE6zohpiuWhMlItkBDd9gg6KegvnhfYzOMsXEegIBPEBCPvxJiVm40]--></g></svg>