<svg xmlns="http://www.w3.org/2000/svg" xmlns:xlink="http://www.w3.org/1999/xlink" contentStyleType="text/css" data-diagram-type="SEQUENCE" height="1003px" preserveAspectRatio="none" style="width:786px;height:1003px;background:#FFFFFF;" version="1.1" viewBox="0 0 786 1003" width="786px" zoomAndPan="magnify"><title>&#25991;&#21270;&#23548;&#35272;&#27169;&#24335;&#26102;&#24207;&#22270;</title><defs/><g><text fill="#000000" font-family="sans-serif" font-size="14" font-weight="bold" lengthAdjust="spacing" textLength="129.9375" x="327.2007" y="30.1074">&#25991;&#21270;&#23548;&#35272;&#27169;&#24335;&#26102;&#24207;&#22270;</text><g><title>..</title><rect fill="#FFFFFF" height="325.9102" style="stroke:#000000;stroke-width:1;" width="10" x="197" y="156.5332"/></g><g><title>..</title><rect fill="#FFFFFF" height="388.4922" style="stroke:#000000;stroke-width:1;" width="10" x="197" y="513.7344"/></g><g><title>..</title><rect fill="#FFFFFF" height="219.0371" style="stroke:#000000;stroke-width:1;" width="10" x="423.9326" y="187.8242"/></g><g><title>..</title><rect fill="#FFFFFF" height="281.6191" style="stroke:#000000;stroke-width:1;" width="10" x="423.9326" y="545.0254"/></g><g><title>Redis</title><rect fill="#FFFFFF" height="31.291" style="stroke:#000000;stroke-width:1;" width="10" x="535.9326" y="576.3164"/></g><g><title>Redis</title><rect fill="#FFFFFF" height="31.291" style="stroke:#000000;stroke-width:1;" width="10" x="535.9326" y="764.0625"/></g><g><title>....API</title><rect fill="#FFFFFF" height="31.291" style="stroke:#000000;stroke-width:1;" width="10" x="617.1118" y="219.1152"/></g><g><title>....API</title><rect fill="#FFFFFF" height="31.291" style="stroke:#000000;stroke-width:1;" width="10" x="617.1118" y="281.6973"/></g><g><title>....API</title><rect fill="#FFFFFF" height="31.291" style="stroke:#000000;stroke-width:1;" width="10" x="617.1118" y="638.8984"/></g><g><title>DeepSeekAPI</title><rect fill="#FFFFFF" height="31.291" style="stroke:#000000;stroke-width:1;" width="10" x="724.3667" y="344.2793"/></g><g><title>DeepSeekAPI</title><rect fill="#FFFFFF" height="31.291" style="stroke:#000000;stroke-width:1;" width="10" x="724.3667" y="701.4805"/></g><g><title>..</title><rect fill="#000000" fill-opacity="0.00000" height="796.9844" width="8" x="18" y="123.2422"/><line style="stroke:#000000;stroke-width:0.5;stroke-dasharray:5,5;" x1="22" x2="22" y1="123.2422" y2="920.2266"/></g><g><title>..</title><rect fill="#000000" fill-opacity="0.00000" height="796.9844" width="8" x="198" y="123.2422"/><line style="stroke:#000000;stroke-width:0.5;stroke-dasharray:5,5;" x1="202" x2="202" y1="123.2422" y2="920.2266"/></g><g><title>..</title><rect fill="#000000" fill-opacity="0.00000" height="796.9844" width="8" x="424.9326" y="123.2422"/><line style="stroke:#000000;stroke-width:0.5;stroke-dasharray:5,5;" x1="428.9326" x2="428.9326" y1="123.2422" y2="920.2266"/></g><g><title>Redis</title><rect fill="#000000" fill-opacity="0.00000" height="796.9844" width="8" x="536.9326" y="123.2422"/><line style="stroke:#000000;stroke-width:0.5;stroke-dasharray:5,5;" x1="540.0361" x2="540.0361" y1="123.2422" y2="920.2266"/></g><g><title>....API</title><rect fill="#000000" fill-opacity="0.00000" height="796.9844" width="8" x="618.1118" y="123.2422"/><line style="stroke:#000000;stroke-width:0.5;stroke-dasharray:5,5;" x1="621.8291" x2="621.8291" y1="123.2422" y2="920.2266"/></g><g><title>DeepSeekAPI</title><rect fill="#000000" fill-opacity="0.00000" height="796.9844" width="8" x="725.3667" y="123.2422"/><line style="stroke:#000000;stroke-width:0.5;stroke-dasharray:5,5;" x1="728.3945" x2="728.3945" y1="123.2422" y2="920.2266"/></g><g class="participant participant-head" data-participant=".."><text fill="#000000" font-family="sans-serif" font-size="14" lengthAdjust="spacing" textLength="28" x="5" y="119.7285">&#29992;&#25143;</text><ellipse cx="22" cy="53.1211" fill="#FFFFFF" rx="8" ry="8" style="stroke:#000000;stroke-width:0.5;"/><path d="M22,61.1211 L22,88.1211 M9,69.1211 L35,69.1211 M22,88.1211 L9,103.1211 M22,88.1211 L35,103.1211" fill="none" style="stroke:#000000;stroke-width:0.5;"/></g><g class="participant participant-tail" data-participant=".."><text fill="#000000" font-family="sans-serif" font-size="14" lengthAdjust="spacing" textLength="28" x="5" y="934.334">&#29992;&#25143;</text><ellipse cx="22" cy="946.3477" fill="#FFFFFF" rx="8" ry="8" style="stroke:#000000;stroke-width:0.5;"/><path d="M22,954.3477 L22,981.3477 M9,962.3477 L35,962.3477 M22,981.3477 L9,996.3477 M22,981.3477 L35,996.3477" fill="none" style="stroke:#000000;stroke-width:0.5;"/></g><g class="participant participant-head" data-participant=".."><rect fill="#FFFFFF" height="32.6211" rx="2.5" ry="2.5" style="stroke:#000000;stroke-width:0.5;" width="42" x="181" y="89.6211"/><text fill="#000000" font-family="sans-serif" font-size="14" lengthAdjust="spacing" textLength="28" x="188" y="111.7285">&#21069;&#31471;</text></g><g class="participant participant-tail" data-participant=".."><rect fill="#FFFFFF" height="32.6211" rx="2.5" ry="2.5" style="stroke:#000000;stroke-width:0.5;" width="42" x="181" y="919.2266"/><text fill="#000000" font-family="sans-serif" font-size="14" lengthAdjust="spacing" textLength="28" x="188" y="941.334">&#21069;&#31471;</text></g><g class="participant participant-head" data-participant=".."><rect fill="#FFFFFF" height="32.6211" rx="2.5" ry="2.5" style="stroke:#000000;stroke-width:0.5;" width="42" x="407.9326" y="89.6211"/><text fill="#000000" font-family="sans-serif" font-size="14" lengthAdjust="spacing" textLength="28" x="414.9326" y="111.7285">&#21518;&#31471;</text></g><g class="participant participant-tail" data-participant=".."><rect fill="#FFFFFF" height="32.6211" rx="2.5" ry="2.5" style="stroke:#000000;stroke-width:0.5;" width="42" x="407.9326" y="919.2266"/><text fill="#000000" font-family="sans-serif" font-size="14" lengthAdjust="spacing" textLength="28" x="414.9326" y="941.334">&#21518;&#31471;</text></g><g class="participant participant-head" data-participant="Redis"><rect fill="#FFFFFF" height="32.6211" rx="2.5" ry="2.5" style="stroke:#000000;stroke-width:0.5;" width="49.793" x="516.0361" y="89.6211"/><text fill="#000000" font-family="sans-serif" font-size="14" lengthAdjust="spacing" textLength="35.793" x="523.0361" y="111.7285">Redis</text></g><g class="participant participant-tail" data-participant="Redis"><rect fill="#FFFFFF" height="32.6211" rx="2.5" ry="2.5" style="stroke:#000000;stroke-width:0.5;" width="49.793" x="516.0361" y="919.2266"/><text fill="#000000" font-family="sans-serif" font-size="14" lengthAdjust="spacing" textLength="35.793" x="523.0361" y="941.334">Redis</text></g><g class="participant participant-head" data-participant="AMap"><rect fill="#FFFFFF" height="32.6211" rx="2.5" ry="2.5" style="stroke:#000000;stroke-width:0.5;" width="92.5654" x="575.8291" y="89.6211"/><text fill="#000000" font-family="sans-serif" font-size="14" lengthAdjust="spacing" textLength="78.5654" x="582.8291" y="111.7285">&#39640;&#24503;&#22320;&#22270;API</text></g><g class="participant participant-tail" data-participant="AMap"><rect fill="#FFFFFF" height="32.6211" rx="2.5" ry="2.5" style="stroke:#000000;stroke-width:0.5;" width="92.5654" x="575.8291" y="919.2266"/><text fill="#000000" font-family="sans-serif" font-size="14" lengthAdjust="spacing" textLength="78.5654" x="582.8291" y="941.334">&#39640;&#24503;&#22320;&#22270;API</text></g><g class="participant participant-head" data-participant="DeepSeek"><rect fill="#FFFFFF" height="32.6211" rx="2.5" ry="2.5" style="stroke:#000000;stroke-width:0.5;" width="101.9443" x="678.3945" y="89.6211"/><text fill="#000000" font-family="sans-serif" font-size="14" lengthAdjust="spacing" textLength="87.9443" x="685.3945" y="111.7285">DeepSeekAPI</text></g><g class="participant participant-tail" data-participant="DeepSeek"><rect fill="#FFFFFF" height="32.6211" rx="2.5" ry="2.5" style="stroke:#000000;stroke-width:0.5;" width="101.9443" x="678.3945" y="919.2266"/><text fill="#000000" font-family="sans-serif" font-size="14" lengthAdjust="spacing" textLength="87.9443" x="685.3945" y="941.334">DeepSeekAPI</text></g><g><title>..</title><rect fill="#FFFFFF" height="325.9102" style="stroke:#000000;stroke-width:1;" width="10" x="197" y="156.5332"/></g><g><title>..</title><rect fill="#FFFFFF" height="388.4922" style="stroke:#000000;stroke-width:1;" width="10" x="197" y="513.7344"/></g><g><title>..</title><rect fill="#FFFFFF" height="219.0371" style="stroke:#000000;stroke-width:1;" width="10" x="423.9326" y="187.8242"/></g><g><title>..</title><rect fill="#FFFFFF" height="281.6191" style="stroke:#000000;stroke-width:1;" width="10" x="423.9326" y="545.0254"/></g><g><title>Redis</title><rect fill="#FFFFFF" height="31.291" style="stroke:#000000;stroke-width:1;" width="10" x="535.9326" y="576.3164"/></g><g><title>Redis</title><rect fill="#FFFFFF" height="31.291" style="stroke:#000000;stroke-width:1;" width="10" x="535.9326" y="764.0625"/></g><g><title>....API</title><rect fill="#FFFFFF" height="31.291" style="stroke:#000000;stroke-width:1;" width="10" x="617.1118" y="219.1152"/></g><g><title>....API</title><rect fill="#FFFFFF" height="31.291" style="stroke:#000000;stroke-width:1;" width="10" x="617.1118" y="281.6973"/></g><g><title>....API</title><rect fill="#FFFFFF" height="31.291" style="stroke:#000000;stroke-width:1;" width="10" x="617.1118" y="638.8984"/></g><g><title>DeepSeekAPI</title><rect fill="#FFFFFF" height="31.291" style="stroke:#000000;stroke-width:1;" width="10" x="724.3667" y="344.2793"/></g><g><title>DeepSeekAPI</title><rect fill="#FFFFFF" height="31.291" style="stroke:#000000;stroke-width:1;" width="10" x="724.3667" y="701.4805"/></g><g class="message" data-participant-1=".." data-participant-2=".."><polygon fill="#000000" points="185,152.5332,195,156.5332,185,160.5332,189,156.5332" style="stroke:#000000;stroke-width:1;"/><line style="stroke:#000000;stroke-width:1;" x1="22" x2="191" y1="156.5332" y2="156.5332"/><text fill="#000000" font-family="sans-serif" font-size="13" lengthAdjust="spacing" textLength="156" x="29" y="151.2705">&#25991;&#21270;&#23548;&#35272;&#27169;&#24335;&#28857;&#20987;&#24320;&#22987;&#23548;&#33322;</text></g><g class="message" data-participant-1=".." data-participant-2=".."><polygon fill="#000000" points="411.9326,183.8242,421.9326,187.8242,411.9326,191.8242,415.9326,187.8242" style="stroke:#000000;stroke-width:1;"/><line style="stroke:#000000;stroke-width:1;" x1="207" x2="417.9326" y1="187.8242" y2="187.8242"/><text fill="#000000" font-family="sans-serif" font-size="13" lengthAdjust="spacing" textLength="175.5381" x="214" y="182.5615">POST /api/get-user (&#23548;&#33322;&#21442;&#25968;)</text></g><g class="message" data-participant-1=".." data-participant-2="AMap"><polygon fill="#000000" points="605.1118,215.1152,615.1118,219.1152,605.1118,223.1152,609.1118,219.1152" style="stroke:#000000;stroke-width:1;"/><line style="stroke:#000000;stroke-width:1;" x1="433.9326" x2="611.1118" y1="219.1152" y2="219.1152"/><text fill="#000000" font-family="sans-serif" font-size="13" lengthAdjust="spacing" textLength="91" x="440.9326" y="213.8525">&#35831;&#27714;&#36870;&#22320;&#29702;&#32534;&#30721;</text></g><g class="message" data-participant-1="AMap" data-participant-2=".."><polygon fill="#000000" points="444.9326,246.4063,434.9326,250.4063,444.9326,254.4063,440.9326,250.4063" style="stroke:#000000;stroke-width:1;"/><line style="stroke:#000000;stroke-width:1;stroke-dasharray:2,2;" x1="438.9326" x2="621.1118" y1="250.4063" y2="250.4063"/><text fill="#000000" font-family="sans-serif" font-size="13" lengthAdjust="spacing" textLength="104" x="450.9326" y="245.1436">&#36820;&#22238;&#22320;&#29702;&#20301;&#32622;&#20449;&#24687;</text></g><g class="message" data-participant-1=".." data-participant-2="AMap"><polygon fill="#000000" points="605.1118,277.6973,615.1118,281.6973,605.1118,285.6973,609.1118,281.6973" style="stroke:#000000;stroke-width:1;"/><line style="stroke:#000000;stroke-width:1;" x1="433.9326" x2="611.1118" y1="281.6973" y2="281.6973"/><text fill="#000000" font-family="sans-serif" font-size="13" lengthAdjust="spacing" textLength="78" x="440.9326" y="276.4346">&#35831;&#27714;&#22825;&#27668;&#20449;&#24687;</text></g><g class="message" data-participant-1="AMap" data-participant-2=".."><polygon fill="#000000" points="444.9326,308.9883,434.9326,312.9883,444.9326,316.9883,440.9326,312.9883" style="stroke:#000000;stroke-width:1;"/><line style="stroke:#000000;stroke-width:1;stroke-dasharray:2,2;" x1="438.9326" x2="621.1118" y1="312.9883" y2="312.9883"/><text fill="#000000" font-family="sans-serif" font-size="13" lengthAdjust="spacing" textLength="78" x="450.9326" y="307.7256">&#36820;&#22238;&#22825;&#27668;&#20449;&#24687;</text></g><g class="message" data-participant-1=".." data-participant-2="DeepSeek"><polygon fill="#000000" points="712.3667,340.2793,722.3667,344.2793,712.3667,348.2793,716.3667,344.2793" style="stroke:#000000;stroke-width:1;"/><line style="stroke:#000000;stroke-width:1;" x1="433.9326" x2="718.3667" y1="344.2793" y2="344.2793"/><text fill="#000000" font-family="sans-serif" font-size="13" lengthAdjust="spacing" textLength="78" x="440.9326" y="339.0166">&#29983;&#25104;&#23548;&#35272;&#20869;&#23481;</text></g><g class="message" data-participant-1="DeepSeek" data-participant-2=".."><polygon fill="#000000" points="444.9326,371.5703,434.9326,375.5703,444.9326,379.5703,440.9326,375.5703" style="stroke:#000000;stroke-width:1;"/><line style="stroke:#000000;stroke-width:1;stroke-dasharray:2,2;" x1="438.9326" x2="728.3667" y1="375.5703" y2="375.5703"/><text fill="#000000" font-family="sans-serif" font-size="13" lengthAdjust="spacing" textLength="78" x="450.9326" y="370.3076">&#36820;&#22238;&#23548;&#35272;&#25991;&#26412;</text></g><g class="message" data-participant-1=".." data-participant-2=".."><polygon fill="#000000" points="218,402.8613,208,406.8613,218,410.8613,214,406.8613" style="stroke:#000000;stroke-width:1;"/><line style="stroke:#000000;stroke-width:1;stroke-dasharray:2,2;" x1="212" x2="427.9326" y1="406.8613" y2="406.8613"/><text fill="#000000" font-family="sans-serif" font-size="13" lengthAdjust="spacing" textLength="78" x="224" y="401.5986">&#36820;&#22238;&#23548;&#35272;&#25991;&#26412;</text></g><g class="message" data-participant-1=".." data-participant-2=".."><line style="stroke:#000000;stroke-width:1;" x1="207" x2="249" y1="438.1523" y2="438.1523"/><line style="stroke:#000000;stroke-width:1;" x1="249" x2="249" y1="438.1523" y2="451.1523"/><line style="stroke:#000000;stroke-width:1;" x1="208" x2="249" y1="451.1523" y2="451.1523"/><polygon fill="#000000" points="218,447.1523,208,451.1523,218,455.1523,214,451.1523" style="stroke:#000000;stroke-width:1;"/><text fill="#000000" font-family="sans-serif" font-size="13" lengthAdjust="spacing" textLength="78" x="214" y="432.8896">&#25773;&#25918;&#23548;&#35272;&#35821;&#38899;</text></g><g class="message" data-participant-1=".." data-participant-2=".."><polygon fill="#000000" points="33,478.4434,23,482.4434,33,486.4434,29,482.4434" style="stroke:#000000;stroke-width:1;"/><line style="stroke:#000000;stroke-width:1;stroke-dasharray:2,2;" x1="27" x2="201" y1="482.4434" y2="482.4434"/><text fill="#000000" font-family="sans-serif" font-size="13" lengthAdjust="spacing" textLength="78" x="39" y="477.1807">&#25910;&#21548;&#23548;&#35272;&#20869;&#23481;</text></g><g class="message" data-participant-1=".." data-participant-2=".."><polygon fill="#000000" points="185,509.7344,195,513.7344,185,517.7344,189,513.7344" style="stroke:#000000;stroke-width:1;"/><line style="stroke:#000000;stroke-width:1;" x1="22" x2="191" y1="513.7344" y2="513.7344"/><text fill="#000000" font-family="sans-serif" font-size="13" lengthAdjust="spacing" textLength="78" x="29" y="508.4717">&#26597;&#35810;&#21306;&#22495;&#20449;&#24687;</text></g><g class="message" data-participant-1=".." data-participant-2=".."><polygon fill="#000000" points="411.9326,541.0254,421.9326,545.0254,411.9326,549.0254,415.9326,545.0254" style="stroke:#000000;stroke-width:1;"/><line style="stroke:#000000;stroke-width:1;" x1="207" x2="417.9326" y1="545.0254" y2="545.0254"/><text fill="#000000" font-family="sans-serif" font-size="13" lengthAdjust="spacing" textLength="197.9326" x="214" y="539.7627">GET /api/getArea (&#32463;&#32428;&#24230;, &#29992;&#25143;ID)</text></g><g class="message" data-participant-1=".." data-participant-2="Redis"><polygon fill="#000000" points="523.9326,572.3164,533.9326,576.3164,523.9326,580.3164,527.9326,576.3164" style="stroke:#000000;stroke-width:1;"/><line style="stroke:#000000;stroke-width:1;" x1="433.9326" x2="529.9326" y1="576.3164" y2="576.3164"/><text fill="#000000" font-family="sans-serif" font-size="13" lengthAdjust="spacing" textLength="52" x="440.9326" y="571.0537">&#26816;&#26597;&#32531;&#23384;</text></g><g class="message" data-participant-1="Redis" data-participant-2=".."><polygon fill="#000000" points="444.9326,603.6074,434.9326,607.6074,444.9326,611.6074,440.9326,607.6074" style="stroke:#000000;stroke-width:1;"/><line style="stroke:#000000;stroke-width:1;stroke-dasharray:2,2;" x1="438.9326" x2="539.9326" y1="607.6074" y2="607.6074"/><text fill="#000000" font-family="sans-serif" font-size="13" lengthAdjust="spacing" textLength="78" x="450.9326" y="602.3447">&#36820;&#22238;&#32531;&#23384;&#32467;&#26524;</text></g><g class="message" data-participant-1=".." data-participant-2="AMap"><polygon fill="#000000" points="605.1118,634.8984,615.1118,638.8984,605.1118,642.8984,609.1118,638.8984" style="stroke:#000000;stroke-width:1;"/><line style="stroke:#000000;stroke-width:1;" x1="433.9326" x2="611.1118" y1="638.8984" y2="638.8984"/><text fill="#000000" font-family="sans-serif" font-size="13" lengthAdjust="spacing" textLength="91" x="440.9326" y="633.6357">&#35831;&#27714;&#36870;&#22320;&#29702;&#32534;&#30721;</text></g><g class="message" data-participant-1="AMap" data-participant-2=".."><polygon fill="#000000" points="444.9326,666.1895,434.9326,670.1895,444.9326,674.1895,440.9326,670.1895" style="stroke:#000000;stroke-width:1;"/><line style="stroke:#000000;stroke-width:1;stroke-dasharray:2,2;" x1="438.9326" x2="621.1118" y1="670.1895" y2="670.1895"/><text fill="#000000" font-family="sans-serif" font-size="13" lengthAdjust="spacing" textLength="78" x="450.9326" y="664.9268">&#36820;&#22238;&#21306;&#22495;&#20449;&#24687;</text></g><g class="message" data-participant-1=".." data-participant-2="DeepSeek"><polygon fill="#000000" points="712.3667,697.4805,722.3667,701.4805,712.3667,705.4805,716.3667,701.4805" style="stroke:#000000;stroke-width:1;"/><line style="stroke:#000000;stroke-width:1;" x1="433.9326" x2="718.3667" y1="701.4805" y2="701.4805"/><text fill="#000000" font-family="sans-serif" font-size="13" lengthAdjust="spacing" textLength="104" x="440.9326" y="696.2178">&#29983;&#25104;&#21306;&#22495;&#23548;&#35272;&#20869;&#23481;</text></g><g class="message" data-participant-1="DeepSeek" data-participant-2=".."><polygon fill="#000000" points="444.9326,728.7715,434.9326,732.7715,444.9326,736.7715,440.9326,732.7715" style="stroke:#000000;stroke-width:1;"/><line style="stroke:#000000;stroke-width:1;stroke-dasharray:2,2;" x1="438.9326" x2="728.3667" y1="732.7715" y2="732.7715"/><text fill="#000000" font-family="sans-serif" font-size="13" lengthAdjust="spacing" textLength="78" x="450.9326" y="727.5088">&#36820;&#22238;&#23548;&#35272;&#25991;&#26412;</text></g><g class="message" data-participant-1=".." data-participant-2="Redis"><polygon fill="#000000" points="523.9326,760.0625,533.9326,764.0625,523.9326,768.0625,527.9326,764.0625" style="stroke:#000000;stroke-width:1;"/><line style="stroke:#000000;stroke-width:1;" x1="433.9326" x2="529.9326" y1="764.0625" y2="764.0625"/><text fill="#000000" font-family="sans-serif" font-size="13" lengthAdjust="spacing" textLength="78" x="440.9326" y="758.7998">&#32531;&#23384;&#23548;&#35272;&#25688;&#35201;</text></g><g class="message" data-participant-1="Redis" data-participant-2=".."><polygon fill="#000000" points="444.9326,791.3535,434.9326,795.3535,444.9326,799.3535,440.9326,795.3535" style="stroke:#000000;stroke-width:1;"/><line style="stroke:#000000;stroke-width:1;stroke-dasharray:2,2;" x1="438.9326" x2="539.9326" y1="795.3535" y2="795.3535"/><text fill="#000000" font-family="sans-serif" font-size="13" lengthAdjust="spacing" textLength="52" x="450.9326" y="790.0908">&#30830;&#35748;&#32531;&#23384;</text></g><g class="message" data-participant-1=".." data-participant-2=".."><polygon fill="#000000" points="218,822.6445,208,826.6445,218,830.6445,214,826.6445" style="stroke:#000000;stroke-width:1;"/><line style="stroke:#000000;stroke-width:1;stroke-dasharray:2,2;" x1="212" x2="427.9326" y1="826.6445" y2="826.6445"/><text fill="#000000" font-family="sans-serif" font-size="13" lengthAdjust="spacing" textLength="78" x="224" y="821.3818">&#36820;&#22238;&#23548;&#35272;&#25991;&#26412;</text></g><g class="message" data-participant-1=".." data-participant-2=".."><line style="stroke:#000000;stroke-width:1;" x1="207" x2="249" y1="857.9355" y2="857.9355"/><line style="stroke:#000000;stroke-width:1;" x1="249" x2="249" y1="857.9355" y2="870.9355"/><line style="stroke:#000000;stroke-width:1;" x1="208" x2="249" y1="870.9355" y2="870.9355"/><polygon fill="#000000" points="218,866.9355,208,870.9355,218,874.9355,214,870.9355" style="stroke:#000000;stroke-width:1;"/><text fill="#000000" font-family="sans-serif" font-size="13" lengthAdjust="spacing" textLength="78" x="214" y="852.6729">&#25773;&#25918;&#23548;&#35272;&#35821;&#38899;</text></g><g class="message" data-participant-1=".." data-participant-2=".."><polygon fill="#000000" points="33,898.2266,23,902.2266,33,906.2266,29,902.2266" style="stroke:#000000;stroke-width:1;"/><line style="stroke:#000000;stroke-width:1;stroke-dasharray:2,2;" x1="27" x2="201" y1="902.2266" y2="902.2266"/><text fill="#000000" font-family="sans-serif" font-size="13" lengthAdjust="spacing" textLength="78" x="39" y="896.9639">&#25910;&#21548;&#21306;&#22495;&#23548;&#35272;</text></g><!--SRC=[lLDTRn9157tVNp7fYpMHz9q74xHgcjJOMF_02DDs0jt5sMs9CIP08g2sWeA0jYcjrhRQyg4ca59e_mmpippv5rmObXtQfMfYkW_xCVUUU-uzzwmUn6eO4hWCz2KOq29ONGGBCAGZnS16206MJzArFAsspFqKEzYXhJGhr6apJJTE5Tt1eYShIFKZy4m1rkKZH8lSra8Q0Oz3q1zq3kzggd4Xu3SqSaiZ0KJSGzRN8j5Mr808HvQmWPomMyavI0pins6e6kw5vOInvQKaDv9Pl81ciOhS6ORHiUMdyIgsW39SrTJHs3cmGQ2gMv8ZrP3JtBgJGlF6KskJgaQMOGY0Qu2cywoUeg-s-O_2hzOQ-r3fHZ_ISg7JpYhF5TWJ5V3S0KirbB0Z0Q0lr_bXTVGey-RyqKCKmFh8oKJti4XF6tIpPfd6DpSp0Q0EVFTXU3Hh6g7mF491EyF-LXH5D0CyDmSzU5rioUF7D7b2Mr6w_xftdlhMcmIlGWFPdOj7lqo_Ro-OUp3_24p1C9vQH8PdHKS4J0emJSVP-zfrgOOOLJnwDNeJU85PRR3lyMuqOOt7CmdUolFjc8FgZzcx0Oz4QvxbwCQMG7JQwxnTwPpji5XL2Q1Hf3iRtVtAQha1vE-ePCHu4bjohxN-4ajbXBuqyO9MZXsYuMBi5pT2iPbyacqUoOH3h4qgxVHofAs_iqFR2k_AB7SgO6Qrt2tz72PPMS8wLbQkJZD78mF9nOL1N9rM-c9MFz6r9YsLpai-rbVtxZYsyX44mIG_IVFc4MtktHYqD3DzcRdwVv55_ZbgyVDMbfQBJhRunVft5-b5DZ_9igrDUKQ1-f_-bJNv1rFrOLTWhQ6AGf41xctHt8lzMKk-Kp4hkmFbnwfunUwLbBletjy0]--></g></svg>